<svg width="16" height="13" viewBox="0 0 16 13" fill="none" xmlns="http://www.w3.org/2000/svg">
<path fill-rule="evenodd" clip-rule="evenodd" d="M8.30488 12.0853C8.81998 12.5927 9.64695 12.5927 10.162 12.0853L14.8898 7.42846C15.4106 6.91519 15.4106 6.08324 14.8898 5.57154L10.1624 0.914966C9.64712 0.407454 8.81989 0.407542 8.30477 0.915163C7.77863 1.43363 7.77877 2.28243 8.30507 2.80073L8.34074 2.83587C9.21574 3.69756 8.60559 5.18669 7.37753 5.18669H1.31312C0.587904 5.18669 0 5.77459 0 6.4998C0 7.22502 0.587903 7.81292 1.31312 7.81292H7.37723C8.60559 7.81292 9.216 9.30232 8.34095 10.1644L8.30482 10.2C7.77866 10.7183 7.77869 11.567 8.30488 12.0853Z" fill="white"/>
</svg>
