<svg width="22" height="23" viewBox="0 0 22 23" fill="none" xmlns="http://www.w3.org/2000/svg">
<path d="M10.7422 3.60059C6.32715 3.60059 2.75 7.20996 2.75 11.5928C2.75 16.0078 6.32715 19.585 10.7422 19.585C15.125 19.585 18.7344 16.0078 18.7344 11.5928C18.7344 7.20996 15.125 3.60059 10.7422 3.60059ZM15.9951 7.30664C16.9619 8.4668 17.542 9.94922 17.542 11.5605C17.3164 11.4961 15.0605 11.0449 12.8047 11.335C12.6113 10.8838 12.4502 10.4971 12.1924 9.98145C14.7383 8.9502 15.8662 7.5 15.9951 7.30664ZM15.2539 6.50098C15.125 6.69434 14.0938 8.08008 11.6768 8.98242C10.5488 6.91992 9.32422 5.24414 9.13086 4.98633C11.29 4.4707 13.5781 5.01855 15.2539 6.50098ZM7.80957 5.4375C8.00293 5.69531 9.22754 7.37109 10.3555 9.40137C7.16504 10.2393 4.36133 10.2393 4.03906 10.207C4.49023 8.1123 5.9082 6.33984 7.80957 5.4375ZM3.91016 11.625C3.91016 11.5605 3.91016 11.4961 3.91016 11.3994C4.2002 11.4316 7.51953 11.4639 10.9033 10.4326C11.1289 10.8193 11.29 11.2061 11.4834 11.5928C9.00195 12.3018 6.74609 14.2998 5.65039 16.1689C4.55469 14.9766 3.91016 13.3652 3.91016 11.625ZM6.52051 17.0068C7.26172 15.5566 9.19531 13.6553 11.9346 12.7207C12.9014 15.2021 13.2881 17.2969 13.3848 17.9092C11.1934 18.8438 8.55078 18.5859 6.52051 17.0068ZM14.5449 17.2646C14.4805 16.8779 14.0938 14.8799 13.2236 12.3984C15.3506 12.0762 17.2197 12.624 17.4775 12.6885C17.1553 14.5898 16.0596 16.2334 14.5449 17.2646Z" fill="#6B7280"/>
</svg>
