<svg width="81" height="15" viewBox="0 0 81 15" fill="none" xmlns="http://www.w3.org/2000/svg">
<path opacity="0.5" d="M3.125 14H0.21875V4.65625H3.125V14ZM1.65625 3.40625C0.75 3.40625 0 2.625 0 1.6875C0 0.78125 0.75 0.03125 1.65625 0.03125C2.59375 0.03125 3.34375 0.78125 3.34375 1.6875C3.34375 2.625 2.59375 3.40625 1.65625 3.40625ZM13.9688 14H11.0938V9.46875C11.0938 8.375 11.0625 7 9.5625 7C8.0625 7 7.84375 8.15625 7.84375 9.375V14H4.9375V4.65625H7.71875V5.9375H7.75C8.15625 5.21875 9.09375 4.4375 10.5 4.4375C13.4375 4.4375 14 6.375 14 8.875V14H13.9688ZM30.1562 12.7734V14H24.4688V12.7734H30.1562ZM24.7656 2.625V14H23.2578V2.625H24.7656ZM33.2344 5.54688V14H31.7812V5.54688H33.2344ZM31.6719 3.30469C31.6719 3.07031 31.7422 2.8724 31.8828 2.71094C32.0286 2.54948 32.2422 2.46875 32.5234 2.46875C32.7995 2.46875 33.0104 2.54948 33.1562 2.71094C33.3073 2.8724 33.3828 3.07031 33.3828 3.30469C33.3828 3.52865 33.3073 3.72135 33.1562 3.88281C33.0104 4.03906 32.7995 4.11719 32.5234 4.11719C32.2422 4.11719 32.0286 4.03906 31.8828 3.88281C31.7422 3.72135 31.6719 3.52865 31.6719 3.30469ZM37 7.35156V14H35.5547V5.54688H36.9219L37 7.35156ZM36.6562 9.45312L36.0547 9.42969C36.0599 8.85156 36.1458 8.31771 36.3125 7.82812C36.4792 7.33333 36.7135 6.90365 37.0156 6.53906C37.3177 6.17448 37.6771 5.89323 38.0938 5.69531C38.5156 5.49219 38.9818 5.39062 39.4922 5.39062C39.9089 5.39062 40.2839 5.44792 40.6172 5.5625C40.9505 5.67188 41.2344 5.84896 41.4688 6.09375C41.7083 6.33854 41.8906 6.65625 42.0156 7.04688C42.1406 7.43229 42.2031 7.90365 42.2031 8.46094V14H40.75V8.44531C40.75 8.0026 40.6849 7.64844 40.5547 7.38281C40.4245 7.11198 40.2344 6.91667 39.9844 6.79688C39.7344 6.67188 39.4271 6.60938 39.0625 6.60938C38.7031 6.60938 38.375 6.6849 38.0781 6.83594C37.7865 6.98698 37.5339 7.19531 37.3203 7.46094C37.112 7.72656 36.9479 8.03125 36.8281 8.375C36.7135 8.71354 36.6562 9.07292 36.6562 9.45312ZM45.8516 2V14H44.3984V2H45.8516ZM51.0156 5.54688L47.3281 9.49219L45.2656 11.6328L45.1484 10.0938L46.625 8.32812L49.25 5.54688H51.0156ZM49.6953 14L46.6797 9.96875L47.4297 8.67969L51.3984 14H49.6953ZM55.8594 14.1562C55.2708 14.1562 54.737 14.0573 54.2578 13.8594C53.7839 13.6562 53.375 13.3724 53.0312 13.0078C52.6927 12.6432 52.4323 12.2109 52.25 11.7109C52.0677 11.2109 51.9766 10.6641 51.9766 10.0703V9.74219C51.9766 9.05469 52.0781 8.44271 52.2812 7.90625C52.4844 7.36458 52.7604 6.90625 53.1094 6.53125C53.4583 6.15625 53.8542 5.8724 54.2969 5.67969C54.7396 5.48698 55.1979 5.39062 55.6719 5.39062C56.276 5.39062 56.7969 5.49479 57.2344 5.70312C57.6771 5.91146 58.0391 6.20312 58.3203 6.57812C58.6016 6.94792 58.8099 7.38542 58.9453 7.89062C59.0807 8.39062 59.1484 8.9375 59.1484 9.53125V10.1797H52.8359V9H57.7031V8.89062C57.6823 8.51562 57.6042 8.15104 57.4688 7.79688C57.3385 7.44271 57.1302 7.15104 56.8438 6.92188C56.5573 6.69271 56.1667 6.57812 55.6719 6.57812C55.3438 6.57812 55.0417 6.64844 54.7656 6.78906C54.4896 6.92448 54.2526 7.1276 54.0547 7.39844C53.8568 7.66927 53.7031 8 53.5938 8.39062C53.4844 8.78125 53.4297 9.23177 53.4297 9.74219V10.0703C53.4297 10.4714 53.4844 10.849 53.5938 11.2031C53.7083 11.5521 53.8724 11.8594 54.0859 12.125C54.3047 12.3906 54.5677 12.599 54.875 12.75C55.1875 12.901 55.5417 12.9766 55.9375 12.9766C56.4479 12.9766 56.8802 12.8724 57.2344 12.6641C57.5885 12.4557 57.8984 12.1771 58.1641 11.8281L59.0391 12.5234C58.8568 12.7995 58.625 13.0625 58.3438 13.3125C58.0625 13.5625 57.7161 13.7656 57.3047 13.9219C56.8984 14.0781 56.4167 14.1562 55.8594 14.1562ZM66.1641 12.3594V2H67.6172V14H66.2891L66.1641 12.3594ZM60.4766 9.86719V9.70312C60.4766 9.05729 60.5547 8.47135 60.7109 7.94531C60.8724 7.41406 61.099 6.95833 61.3906 6.57812C61.6875 6.19792 62.0391 5.90625 62.4453 5.70312C62.8568 5.49479 63.3151 5.39062 63.8203 5.39062C64.3516 5.39062 64.8151 5.48438 65.2109 5.67188C65.612 5.85417 65.9505 6.1224 66.2266 6.47656C66.5078 6.82552 66.7292 7.2474 66.8906 7.74219C67.0521 8.23698 67.1641 8.79688 67.2266 9.42188V10.1406C67.1693 10.7604 67.0573 11.3177 66.8906 11.8125C66.7292 12.3073 66.5078 12.7292 66.2266 13.0781C65.9505 13.4271 65.612 13.6953 65.2109 13.8828C64.8099 14.0651 64.3411 14.1562 63.8047 14.1562C63.3099 14.1562 62.8568 14.0495 62.4453 13.8359C62.0391 13.6224 61.6875 13.3229 61.3906 12.9375C61.099 12.5521 60.8724 12.099 60.7109 11.5781C60.5547 11.0521 60.4766 10.4818 60.4766 9.86719ZM61.9297 9.70312V9.86719C61.9297 10.2891 61.9714 10.6849 62.0547 11.0547C62.1432 11.4245 62.2786 11.75 62.4609 12.0312C62.6432 12.3125 62.875 12.5339 63.1562 12.6953C63.4375 12.8516 63.7734 12.9297 64.1641 12.9297C64.6432 12.9297 65.0365 12.8281 65.3438 12.625C65.6562 12.4219 65.9062 12.1536 66.0938 11.8203C66.2812 11.487 66.4271 11.125 66.5312 10.7344V8.85156C66.4688 8.5651 66.3776 8.28906 66.2578 8.02344C66.1432 7.7526 65.9922 7.51302 65.8047 7.30469C65.6224 7.09115 65.3958 6.92188 65.125 6.79688C64.8594 6.67188 64.5443 6.60938 64.1797 6.60938C63.7839 6.60938 63.4427 6.69271 63.1562 6.85938C62.875 7.02083 62.6432 7.24479 62.4609 7.53125C62.2786 7.8125 62.1432 8.14062 62.0547 8.51562C61.9714 8.88542 61.9297 9.28125 61.9297 9.70312ZM71.7031 2.625V14H70.1953V2.625H71.7031ZM75.6719 7.35156V14H74.2266V5.54688H75.5938L75.6719 7.35156ZM75.3281 9.45312L74.7266 9.42969C74.7318 8.85156 74.8177 8.31771 74.9844 7.82812C75.151 7.33333 75.3854 6.90365 75.6875 6.53906C75.9896 6.17448 76.349 5.89323 76.7656 5.69531C77.1875 5.49219 77.6536 5.39062 78.1641 5.39062C78.5807 5.39062 78.9557 5.44792 79.2891 5.5625C79.6224 5.67188 79.9062 5.84896 80.1406 6.09375C80.3802 6.33854 80.5625 6.65625 80.6875 7.04688C80.8125 7.43229 80.875 7.90365 80.875 8.46094V14H79.4219V8.44531C79.4219 8.0026 79.3568 7.64844 79.2266 7.38281C79.0964 7.11198 78.9062 6.91667 78.6562 6.79688C78.4062 6.67188 78.099 6.60938 77.7344 6.60938C77.375 6.60938 77.0469 6.6849 76.75 6.83594C76.4583 6.98698 76.2057 7.19531 75.9922 7.46094C75.7839 7.72656 75.6198 8.03125 75.5 8.375C75.3854 8.71354 75.3281 9.07292 75.3281 9.45312Z" fill="#0A142F"/>
</svg>
