<svg width="95" height="17" viewBox="0 0 95 17" fill="none" xmlns="http://www.w3.org/2000/svg">
<path opacity="0.5" d="M8 3.40625C9.96875 3.40625 11.5938 5.03125 11.5938 7C11.5938 9 9.96875 10.5938 8 10.5938C6 10.5938 4.40625 9 4.40625 7C4.40625 5.03125 6 3.40625 8 3.40625ZM8 9.34375C9.28125 9.34375 10.3125 8.3125 10.3125 7C10.3125 5.71875 9.28125 4.6875 8 4.6875C6.6875 4.6875 5.65625 5.71875 5.65625 7C5.65625 8.3125 6.71875 9.34375 8 9.34375ZM12.5625 3.28125C12.5625 3.75 12.1875 4.125 11.7188 4.125C11.25 4.125 10.875 3.75 10.875 3.28125C10.875 2.8125 11.25 2.4375 11.7188 2.4375C12.1875 2.4375 12.5625 2.8125 12.5625 3.28125ZM14.9375 4.125C15 5.28125 15 8.75 14.9375 9.90625C14.875 11.0312 14.625 12 13.8125 12.8438C13 13.6562 12 13.9062 10.875 13.9688C9.71875 14.0312 6.25 14.0312 5.09375 13.9688C3.96875 13.9062 3 13.6562 2.15625 12.8438C1.34375 12 1.09375 11.0312 1.03125 9.90625C0.96875 8.75 0.96875 5.28125 1.03125 4.125C1.09375 3 1.34375 2 2.15625 1.1875C3 0.375 3.96875 0.125 5.09375 0.0625C6.25 0 9.71875 0 10.875 0.0625C12 0.125 13 0.375 13.8125 1.1875C14.625 2 14.875 3 14.9375 4.125ZM13.4375 11.125C13.8125 10.2188 13.7188 8.03125 13.7188 7C13.7188 6 13.8125 3.8125 13.4375 2.875C13.1875 2.28125 12.7188 1.78125 12.125 1.5625C11.1875 1.1875 9 1.28125 8 1.28125C6.96875 1.28125 4.78125 1.1875 3.875 1.5625C3.25 1.8125 2.78125 2.28125 2.53125 2.875C2.15625 3.8125 2.25 6 2.25 7C2.25 8.03125 2.15625 10.2188 2.53125 11.125C2.78125 11.75 3.25 12.2188 3.875 12.4688C4.78125 12.8438 6.96875 12.75 8 12.75C9 12.75 11.1875 12.8438 12.125 12.4688C12.7188 12.2188 13.2188 11.75 13.4375 11.125ZM25.875 1.625V13H24.3672V1.625H25.875ZM29.8438 6.35156V13H28.3984V4.54688H29.7656L29.8438 6.35156ZM29.5 8.45312L28.8984 8.42969C28.9036 7.85156 28.9896 7.31771 29.1562 6.82812C29.3229 6.33333 29.5573 5.90365 29.8594 5.53906C30.1615 5.17448 30.5208 4.89323 30.9375 4.69531C31.3594 4.49219 31.8255 4.39062 32.3359 4.39062C32.7526 4.39062 33.1276 4.44792 33.4609 4.5625C33.7943 4.67188 34.0781 4.84896 34.3125 5.09375C34.5521 5.33854 34.7344 5.65625 34.8594 6.04688C34.9844 6.43229 35.0469 6.90365 35.0469 7.46094V13H33.5938V7.44531C33.5938 7.0026 33.5286 6.64844 33.3984 6.38281C33.2682 6.11198 33.0781 5.91667 32.8281 5.79688C32.5781 5.67188 32.2708 5.60938 31.9062 5.60938C31.5469 5.60938 31.2188 5.6849 30.9219 5.83594C30.6302 5.98698 30.3776 6.19531 30.1641 6.46094C29.9557 6.72656 29.7917 7.03125 29.6719 7.375C29.5573 7.71354 29.5 8.07292 29.5 8.45312ZM42.1641 10.7578C42.1641 10.5495 42.1172 10.3568 42.0234 10.1797C41.9349 9.9974 41.75 9.83333 41.4688 9.6875C41.1927 9.53646 40.776 9.40625 40.2188 9.29688C39.75 9.19792 39.3255 9.08073 38.9453 8.94531C38.5703 8.8099 38.25 8.64583 37.9844 8.45312C37.724 8.26042 37.5234 8.03385 37.3828 7.77344C37.2422 7.51302 37.1719 7.20833 37.1719 6.85938C37.1719 6.52604 37.2448 6.21094 37.3906 5.91406C37.5417 5.61719 37.7526 5.35417 38.0234 5.125C38.2995 4.89583 38.6302 4.71615 39.0156 4.58594C39.401 4.45573 39.8307 4.39062 40.3047 4.39062C40.9818 4.39062 41.5599 4.51042 42.0391 4.75C42.5182 4.98958 42.8854 5.3099 43.1406 5.71094C43.3958 6.10677 43.5234 6.54688 43.5234 7.03125H42.0781C42.0781 6.79688 42.0078 6.57031 41.8672 6.35156C41.7318 6.1276 41.5312 5.94271 41.2656 5.79688C41.0052 5.65104 40.6849 5.57812 40.3047 5.57812C39.9036 5.57812 39.5781 5.64062 39.3281 5.76562C39.0833 5.88542 38.9036 6.03906 38.7891 6.22656C38.6797 6.41406 38.625 6.61198 38.625 6.82031C38.625 6.97656 38.651 7.11719 38.7031 7.24219C38.7604 7.36198 38.8594 7.47396 39 7.57812C39.1406 7.67708 39.3385 7.77083 39.5938 7.85938C39.849 7.94792 40.1745 8.03646 40.5703 8.125C41.263 8.28125 41.8333 8.46875 42.2812 8.6875C42.7292 8.90625 43.0625 9.17448 43.2812 9.49219C43.5 9.8099 43.6094 10.1953 43.6094 10.6484C43.6094 11.0182 43.5312 11.3568 43.375 11.6641C43.224 11.9714 43.0026 12.237 42.7109 12.4609C42.4245 12.6797 42.0807 12.8516 41.6797 12.9766C41.2839 13.0964 40.8385 13.1562 40.3438 13.1562C39.599 13.1562 38.9688 13.0234 38.4531 12.7578C37.9375 12.4922 37.5469 12.1484 37.2812 11.7266C37.0156 11.3047 36.8828 10.8594 36.8828 10.3906H38.3359C38.3568 10.7865 38.4714 11.1016 38.6797 11.3359C38.888 11.5651 39.1432 11.7292 39.4453 11.8281C39.7474 11.9219 40.0469 11.9688 40.3438 11.9688C40.7396 11.9688 41.0703 11.9167 41.3359 11.8125C41.6068 11.7083 41.8125 11.5651 41.9531 11.3828C42.0938 11.2005 42.1641 10.9922 42.1641 10.7578ZM49.0469 4.54688V5.65625H44.4766V4.54688H49.0469ZM46.0234 2.49219H47.4688V10.9062C47.4688 11.1927 47.513 11.4089 47.6016 11.5547C47.6901 11.7005 47.8047 11.7969 47.9453 11.8438C48.0859 11.8906 48.237 11.9141 48.3984 11.9141C48.5182 11.9141 48.6432 11.9036 48.7734 11.8828C48.9089 11.8568 49.0104 11.8359 49.0781 11.8203L49.0859 13C48.9714 13.0365 48.8203 13.0703 48.6328 13.1016C48.4505 13.138 48.2292 13.1562 47.9688 13.1562C47.6146 13.1562 47.2891 13.0859 46.9922 12.9453C46.6953 12.8047 46.4583 12.5703 46.2812 12.2422C46.1094 11.9089 46.0234 11.4609 46.0234 10.8984V2.49219ZM55.7266 11.5547V7.20312C55.7266 6.86979 55.6589 6.58073 55.5234 6.33594C55.3932 6.08594 55.1953 5.89323 54.9297 5.75781C54.6641 5.6224 54.3359 5.55469 53.9453 5.55469C53.5807 5.55469 53.2604 5.61719 52.9844 5.74219C52.7135 5.86719 52.5 6.03125 52.3438 6.23438C52.1927 6.4375 52.1172 6.65625 52.1172 6.89062H50.6719C50.6719 6.58854 50.75 6.28906 50.9062 5.99219C51.0625 5.69531 51.2865 5.42708 51.5781 5.1875C51.875 4.94271 52.2292 4.75 52.6406 4.60938C53.0573 4.46354 53.5208 4.39062 54.0312 4.39062C54.6458 4.39062 55.1875 4.49479 55.6562 4.70312C56.1302 4.91146 56.5 5.22656 56.7656 5.64844C57.0365 6.0651 57.1719 6.58854 57.1719 7.21875V11.1562C57.1719 11.4375 57.1953 11.737 57.2422 12.0547C57.2943 12.3724 57.3698 12.6458 57.4688 12.875V13H55.9609C55.888 12.8333 55.8307 12.612 55.7891 12.3359C55.7474 12.0547 55.7266 11.7943 55.7266 11.5547ZM55.9766 7.875L55.9922 8.89062H54.5312C54.1198 8.89062 53.7526 8.92448 53.4297 8.99219C53.1068 9.05469 52.8359 9.15104 52.6172 9.28125C52.3984 9.41146 52.2318 9.57552 52.1172 9.77344C52.0026 9.96615 51.9453 10.1927 51.9453 10.4531C51.9453 10.7188 52.0052 10.9609 52.125 11.1797C52.2448 11.3984 52.4245 11.5729 52.6641 11.7031C52.9089 11.8281 53.2083 11.8906 53.5625 11.8906C54.0052 11.8906 54.3958 11.7969 54.7344 11.6094C55.0729 11.4219 55.3411 11.1927 55.5391 10.9219C55.7422 10.651 55.8516 10.388 55.8672 10.1328L56.4844 10.8281C56.4479 11.0469 56.349 11.2891 56.1875 11.5547C56.026 11.8203 55.8099 12.0755 55.5391 12.3203C55.2734 12.5599 54.9557 12.7604 54.5859 12.9219C54.2214 13.0781 53.8099 13.1562 53.3516 13.1562C52.7786 13.1562 52.276 13.0443 51.8438 12.8203C51.4167 12.5964 51.0833 12.2969 50.8438 11.9219C50.6094 11.5417 50.4922 11.1172 50.4922 10.6484C50.4922 10.1953 50.5807 9.79688 50.7578 9.45312C50.9349 9.10417 51.1901 8.8151 51.5234 8.58594C51.8568 8.35156 52.2578 8.17448 52.7266 8.05469C53.1953 7.9349 53.7188 7.875 54.2969 7.875H55.9766ZM64.9219 4.54688H66.2344V12.8203C66.2344 13.5651 66.0833 14.2005 65.7812 14.7266C65.4792 15.2526 65.0573 15.651 64.5156 15.9219C63.9792 16.1979 63.3594 16.3359 62.6562 16.3359C62.3646 16.3359 62.0208 16.2891 61.625 16.1953C61.2344 16.1068 60.849 15.9531 60.4688 15.7344C60.0938 15.5208 59.7786 15.2318 59.5234 14.8672L60.2812 14.0078C60.6354 14.4349 61.0052 14.7318 61.3906 14.8984C61.7812 15.0651 62.1667 15.1484 62.5469 15.1484C63.0052 15.1484 63.401 15.0625 63.7344 14.8906C64.0677 14.7188 64.3255 14.4635 64.5078 14.125C64.6953 13.7917 64.7891 13.3802 64.7891 12.8906V6.40625L64.9219 4.54688ZM59.1016 8.86719V8.70312C59.1016 8.05729 59.1771 7.47135 59.3281 6.94531C59.4844 6.41406 59.7057 5.95833 59.9922 5.57812C60.2839 5.19792 60.6354 4.90625 61.0469 4.70312C61.4583 4.49479 61.9219 4.39062 62.4375 4.39062C62.9688 4.39062 63.4323 4.48438 63.8281 4.67188C64.2292 4.85417 64.5677 5.1224 64.8438 5.47656C65.125 5.82552 65.3464 6.2474 65.5078 6.74219C65.6693 7.23698 65.7812 7.79688 65.8438 8.42188V9.14062C65.7865 9.76042 65.6745 10.3177 65.5078 10.8125C65.3464 11.3073 65.125 11.7292 64.8438 12.0781C64.5677 12.4271 64.2292 12.6953 63.8281 12.8828C63.4271 13.0651 62.9583 13.1562 62.4219 13.1562C61.9167 13.1562 61.4583 13.0495 61.0469 12.8359C60.6406 12.6224 60.2917 12.3229 60 11.9375C59.7083 11.5521 59.4844 11.099 59.3281 10.5781C59.1771 10.0521 59.1016 9.48177 59.1016 8.86719ZM60.5469 8.70312V8.86719C60.5469 9.28906 60.5885 9.6849 60.6719 10.0547C60.7604 10.4245 60.8932 10.75 61.0703 11.0312C61.2526 11.3125 61.4844 11.5339 61.7656 11.6953C62.0469 11.8516 62.3828 11.9297 62.7734 11.9297C63.2526 11.9297 63.6484 11.8281 63.9609 11.625C64.2734 11.4219 64.5208 11.1536 64.7031 10.8203C64.8906 10.487 65.0365 10.125 65.1406 9.73438V7.85156C65.0833 7.5651 64.9948 7.28906 64.875 7.02344C64.7604 6.7526 64.6094 6.51302 64.4219 6.30469C64.2396 6.09115 64.013 5.92188 63.7422 5.79688C63.4714 5.67188 63.1536 5.60938 62.7891 5.60938C62.3932 5.60938 62.0521 5.69271 61.7656 5.85938C61.4844 6.02083 61.2526 6.24479 61.0703 6.53125C60.8932 6.8125 60.7604 7.14062 60.6719 7.51562C60.5885 7.88542 60.5469 8.28125 60.5469 8.70312ZM69.875 5.875V13H68.4297V4.54688H69.8359L69.875 5.875ZM72.5156 4.5L72.5078 5.84375C72.388 5.81771 72.2734 5.80208 72.1641 5.79688C72.0599 5.78646 71.9401 5.78125 71.8047 5.78125C71.4714 5.78125 71.1771 5.83333 70.9219 5.9375C70.6667 6.04167 70.4505 6.1875 70.2734 6.375C70.0964 6.5625 69.9557 6.78646 69.8516 7.04688C69.7526 7.30208 69.6875 7.58333 69.6562 7.89062L69.25 8.125C69.25 7.61458 69.2995 7.13542 69.3984 6.6875C69.5026 6.23958 69.6615 5.84375 69.875 5.5C70.0885 5.15104 70.3594 4.88021 70.6875 4.6875C71.0208 4.48958 71.4167 4.39062 71.875 4.39062C71.9792 4.39062 72.099 4.40365 72.2344 4.42969C72.3698 4.45052 72.4635 4.47396 72.5156 4.5ZM78.5234 11.5547V7.20312C78.5234 6.86979 78.4557 6.58073 78.3203 6.33594C78.1901 6.08594 77.9922 5.89323 77.7266 5.75781C77.4609 5.6224 77.1328 5.55469 76.7422 5.55469C76.3776 5.55469 76.0573 5.61719 75.7812 5.74219C75.5104 5.86719 75.2969 6.03125 75.1406 6.23438C74.9896 6.4375 74.9141 6.65625 74.9141 6.89062H73.4688C73.4688 6.58854 73.5469 6.28906 73.7031 5.99219C73.8594 5.69531 74.0833 5.42708 74.375 5.1875C74.6719 4.94271 75.026 4.75 75.4375 4.60938C75.8542 4.46354 76.3177 4.39062 76.8281 4.39062C77.4427 4.39062 77.9844 4.49479 78.4531 4.70312C78.9271 4.91146 79.2969 5.22656 79.5625 5.64844C79.8333 6.0651 79.9688 6.58854 79.9688 7.21875V11.1562C79.9688 11.4375 79.9922 11.737 80.0391 12.0547C80.0911 12.3724 80.1667 12.6458 80.2656 12.875V13H78.7578C78.6849 12.8333 78.6276 12.612 78.5859 12.3359C78.5443 12.0547 78.5234 11.7943 78.5234 11.5547ZM78.7734 7.875L78.7891 8.89062H77.3281C76.9167 8.89062 76.5495 8.92448 76.2266 8.99219C75.9036 9.05469 75.6328 9.15104 75.4141 9.28125C75.1953 9.41146 75.0286 9.57552 74.9141 9.77344C74.7995 9.96615 74.7422 10.1927 74.7422 10.4531C74.7422 10.7188 74.8021 10.9609 74.9219 11.1797C75.0417 11.3984 75.2214 11.5729 75.4609 11.7031C75.7057 11.8281 76.0052 11.8906 76.3594 11.8906C76.8021 11.8906 77.1927 11.7969 77.5312 11.6094C77.8698 11.4219 78.138 11.1927 78.3359 10.9219C78.5391 10.651 78.6484 10.388 78.6641 10.1328L79.2812 10.8281C79.2448 11.0469 79.1458 11.2891 78.9844 11.5547C78.8229 11.8203 78.6068 12.0755 78.3359 12.3203C78.0703 12.5599 77.7526 12.7604 77.3828 12.9219C77.0182 13.0781 76.6068 13.1562 76.1484 13.1562C75.5755 13.1562 75.0729 13.0443 74.6406 12.8203C74.2135 12.5964 73.8802 12.2969 73.6406 11.9219C73.4062 11.5417 73.2891 11.1172 73.2891 10.6484C73.2891 10.1953 73.3776 9.79688 73.5547 9.45312C73.7318 9.10417 73.987 8.8151 74.3203 8.58594C74.6536 8.35156 75.0547 8.17448 75.5234 8.05469C75.9922 7.9349 76.5156 7.875 77.0938 7.875H78.7734ZM83.6797 6.22656V13H82.2266V4.54688H83.6016L83.6797 6.22656ZM83.3828 8.45312L82.7109 8.42969C82.7161 7.85156 82.7917 7.31771 82.9375 6.82812C83.0833 6.33333 83.2995 5.90365 83.5859 5.53906C83.8724 5.17448 84.2292 4.89323 84.6562 4.69531C85.0833 4.49219 85.5781 4.39062 86.1406 4.39062C86.5365 4.39062 86.901 4.44792 87.2344 4.5625C87.5677 4.67188 87.8568 4.84635 88.1016 5.08594C88.3464 5.32552 88.5365 5.63281 88.6719 6.00781C88.8073 6.38281 88.875 6.83594 88.875 7.36719V13H87.4297V7.4375C87.4297 6.99479 87.3542 6.64062 87.2031 6.375C87.0573 6.10938 86.849 5.91667 86.5781 5.79688C86.3073 5.67188 85.9896 5.60938 85.625 5.60938C85.1979 5.60938 84.8411 5.6849 84.5547 5.83594C84.2682 5.98698 84.0391 6.19531 83.8672 6.46094C83.6953 6.72656 83.5703 7.03125 83.4922 7.375C83.4193 7.71354 83.3828 8.07292 83.3828 8.45312ZM88.8594 7.65625L87.8906 7.95312C87.8958 7.48958 87.9714 7.04427 88.1172 6.61719C88.2682 6.1901 88.4844 5.8099 88.7656 5.47656C89.0521 5.14323 89.4036 4.88021 89.8203 4.6875C90.237 4.48958 90.7135 4.39062 91.25 4.39062C91.7031 4.39062 92.1042 4.45052 92.4531 4.57031C92.8073 4.6901 93.1042 4.875 93.3438 5.125C93.5885 5.36979 93.7734 5.6849 93.8984 6.07031C94.0234 6.45573 94.0859 6.91406 94.0859 7.44531V13H92.6328V7.42969C92.6328 6.95573 92.5573 6.58854 92.4062 6.32812C92.2604 6.0625 92.0521 5.8776 91.7812 5.77344C91.5156 5.66406 91.1979 5.60938 90.8281 5.60938C90.5104 5.60938 90.2292 5.66406 89.9844 5.77344C89.7396 5.88281 89.5339 6.03385 89.3672 6.22656C89.2005 6.41406 89.0729 6.63021 88.9844 6.875C88.901 7.11979 88.8594 7.38021 88.8594 7.65625Z" fill="#0A142F"/>
</svg>
