<svg width="80" height="13" viewBox="0 0 80 13" fill="none" xmlns="http://www.w3.org/2000/svg">
<path opacity="0.5" d="M17.1562 1.90625C17.5312 3.21875 17.5312 6.03125 17.5312 6.03125C17.5312 6.03125 17.5312 8.8125 17.1562 10.1562C16.9688 10.9062 16.375 11.4688 15.6562 11.6562C14.3125 12 9 12 9 12C9 12 3.65625 12 2.3125 11.6562C1.59375 11.4688 1 10.9062 0.8125 10.1562C0.4375 8.8125 0.4375 6.03125 0.4375 6.03125C0.4375 6.03125 0.4375 3.21875 0.8125 1.90625C1 1.15625 1.59375 0.5625 2.3125 0.375C3.65625 0 9 0 9 0C9 0 14.3125 0 15.6562 0.375C16.375 0.5625 16.9688 1.15625 17.1562 1.90625ZM7.25 8.5625L11.6875 6.03125L7.25 3.5V8.5625ZM23.8125 0.625L26.7656 6.33594L29.7266 0.625H31.4375L27.5156 7.75V12H26.0078V7.75L22.0859 0.625H23.8125ZM31.7812 7.86719V7.6875C31.7812 7.07812 31.8698 6.51302 32.0469 5.99219C32.224 5.46615 32.4792 5.01042 32.8125 4.625C33.1458 4.23438 33.5495 3.93229 34.0234 3.71875C34.4974 3.5 35.0286 3.39062 35.6172 3.39062C36.2109 3.39062 36.7448 3.5 37.2188 3.71875C37.6979 3.93229 38.1042 4.23438 38.4375 4.625C38.776 5.01042 39.0339 5.46615 39.2109 5.99219C39.388 6.51302 39.4766 7.07812 39.4766 7.6875V7.86719C39.4766 8.47656 39.388 9.04167 39.2109 9.5625C39.0339 10.0833 38.776 10.5391 38.4375 10.9297C38.1042 11.3151 37.7005 11.6172 37.2266 11.8359C36.7578 12.0495 36.2266 12.1562 35.6328 12.1562C35.0391 12.1562 34.5052 12.0495 34.0312 11.8359C33.5573 11.6172 33.151 11.3151 32.8125 10.9297C32.4792 10.5391 32.224 10.0833 32.0469 9.5625C31.8698 9.04167 31.7812 8.47656 31.7812 7.86719ZM33.2266 7.6875V7.86719C33.2266 8.28906 33.276 8.6875 33.375 9.0625C33.474 9.43229 33.6224 9.76042 33.8203 10.0469C34.0234 10.3333 34.276 10.5599 34.5781 10.7266C34.8802 10.888 35.2318 10.9688 35.6328 10.9688C36.0286 10.9688 36.375 10.888 36.6719 10.7266C36.974 10.5599 37.224 10.3333 37.4219 10.0469C37.6198 9.76042 37.7682 9.43229 37.8672 9.0625C37.9714 8.6875 38.0234 8.28906 38.0234 7.86719V7.6875C38.0234 7.27083 37.9714 6.8776 37.8672 6.50781C37.7682 6.13281 37.6172 5.80208 37.4141 5.51562C37.2161 5.22396 36.9661 4.99479 36.6641 4.82812C36.3672 4.66146 36.0182 4.57812 35.6172 4.57812C35.2214 4.57812 34.8724 4.66146 34.5703 4.82812C34.2734 4.99479 34.0234 5.22396 33.8203 5.51562C33.6224 5.80208 33.474 6.13281 33.375 6.50781C33.276 6.8776 33.2266 7.27083 33.2266 7.6875ZM46.4609 10.0469V3.54688H47.9141V12H46.5312L46.4609 10.0469ZM46.7344 8.26562L47.3359 8.25C47.3359 8.8125 47.276 9.33333 47.1562 9.8125C47.0417 10.2865 46.8542 10.6979 46.5938 11.0469C46.3333 11.3958 45.9922 11.6693 45.5703 11.8672C45.1484 12.0599 44.6354 12.1562 44.0312 12.1562C43.6198 12.1562 43.2422 12.0964 42.8984 11.9766C42.5599 11.8568 42.2682 11.6719 42.0234 11.4219C41.7786 11.1719 41.5885 10.8464 41.4531 10.4453C41.3229 10.0443 41.2578 9.5625 41.2578 9V3.54688H42.7031V9.01562C42.7031 9.39583 42.7448 9.71094 42.8281 9.96094C42.9167 10.2057 43.0339 10.401 43.1797 10.5469C43.3307 10.6875 43.4974 10.7865 43.6797 10.8438C43.8672 10.901 44.0599 10.9297 44.2578 10.9297C44.8724 10.9297 45.3594 10.8125 45.7188 10.5781C46.0781 10.3385 46.3359 10.0182 46.4922 9.61719C46.6536 9.21094 46.7344 8.76042 46.7344 8.26562ZM53.6562 3.54688V4.65625H49.0859V3.54688H53.6562ZM50.6328 1.49219H52.0781V9.90625C52.0781 10.1927 52.1224 10.4089 52.2109 10.5547C52.2995 10.7005 52.4141 10.7969 52.5547 10.8438C52.6953 10.8906 52.8464 10.9141 53.0078 10.9141C53.1276 10.9141 53.2526 10.9036 53.3828 10.8828C53.5182 10.8568 53.6198 10.8359 53.6875 10.8203L53.6953 12C53.5807 12.0365 53.4297 12.0703 53.2422 12.1016C53.0599 12.138 52.8385 12.1562 52.5781 12.1562C52.224 12.1562 51.8984 12.0859 51.6016 11.9453C51.3047 11.8047 51.0677 11.5703 50.8906 11.2422C50.7188 10.9089 50.6328 10.4609 50.6328 9.89844V1.49219ZM60.5234 10.0469V3.54688H61.9766V12H60.5938L60.5234 10.0469ZM60.7969 8.26562L61.3984 8.25C61.3984 8.8125 61.3385 9.33333 61.2188 9.8125C61.1042 10.2865 60.9167 10.6979 60.6562 11.0469C60.3958 11.3958 60.0547 11.6693 59.6328 11.8672C59.2109 12.0599 58.6979 12.1562 58.0938 12.1562C57.6823 12.1562 57.3047 12.0964 56.9609 11.9766C56.6224 11.8568 56.3307 11.6719 56.0859 11.4219C55.8411 11.1719 55.651 10.8464 55.5156 10.4453C55.3854 10.0443 55.3203 9.5625 55.3203 9V3.54688H56.7656V9.01562C56.7656 9.39583 56.8073 9.71094 56.8906 9.96094C56.9792 10.2057 57.0964 10.401 57.2422 10.5469C57.3932 10.6875 57.5599 10.7865 57.7422 10.8438C57.9297 10.901 58.1224 10.9297 58.3203 10.9297C58.9349 10.9297 59.4219 10.8125 59.7812 10.5781C60.1406 10.3385 60.3984 10.0182 60.5547 9.61719C60.7161 9.21094 60.7969 8.76042 60.7969 8.26562ZM64.1719 0H65.625V10.3594L65.5 12H64.1719V0ZM71.3359 7.70312V7.86719C71.3359 8.48177 71.263 9.05208 71.1172 9.57812C70.9714 10.099 70.7578 10.5521 70.4766 10.9375C70.1953 11.3229 69.8516 11.6224 69.4453 11.8359C69.0391 12.0495 68.5729 12.1562 68.0469 12.1562C67.5104 12.1562 67.0391 12.0651 66.6328 11.8828C66.2318 11.6953 65.8932 11.4271 65.6172 11.0781C65.3411 10.7292 65.1198 10.3073 64.9531 9.8125C64.7917 9.31771 64.6797 8.76042 64.6172 8.14062V7.42188C64.6797 6.79688 64.7917 6.23698 64.9531 5.74219C65.1198 5.2474 65.3411 4.82552 65.6172 4.47656C65.8932 4.1224 66.2318 3.85417 66.6328 3.67188C67.0339 3.48438 67.5 3.39062 68.0312 3.39062C68.5625 3.39062 69.0339 3.49479 69.4453 3.70312C69.8568 3.90625 70.2005 4.19792 70.4766 4.57812C70.7578 4.95833 70.9714 5.41406 71.1172 5.94531C71.263 6.47135 71.3359 7.05729 71.3359 7.70312ZM69.8828 7.86719V7.70312C69.8828 7.28125 69.8438 6.88542 69.7656 6.51562C69.6875 6.14062 69.5625 5.8125 69.3906 5.53125C69.2188 5.24479 68.9922 5.02083 68.7109 4.85938C68.4297 4.69271 68.0833 4.60938 67.6719 4.60938C67.3073 4.60938 66.9896 4.67188 66.7188 4.79688C66.4531 4.92188 66.2266 5.09115 66.0391 5.30469C65.8516 5.51302 65.6979 5.7526 65.5781 6.02344C65.4635 6.28906 65.3776 6.5651 65.3203 6.85156V8.73438C65.4036 9.09896 65.5391 9.45052 65.7266 9.78906C65.9193 10.1224 66.1745 10.3958 66.4922 10.6094C66.8151 10.8229 67.2135 10.9297 67.6875 10.9297C68.0781 10.9297 68.4115 10.8516 68.6875 10.6953C68.9688 10.5339 69.1953 10.3125 69.3672 10.0312C69.5443 9.75 69.6745 9.42448 69.7578 9.05469C69.8411 8.6849 69.8828 8.28906 69.8828 7.86719ZM76.6719 12.1562C76.0833 12.1562 75.5495 12.0573 75.0703 11.8594C74.5964 11.6562 74.1875 11.3724 73.8438 11.0078C73.5052 10.6432 73.2448 10.2109 73.0625 9.71094C72.8802 9.21094 72.7891 8.66406 72.7891 8.07031V7.74219C72.7891 7.05469 72.8906 6.44271 73.0938 5.90625C73.2969 5.36458 73.5729 4.90625 73.9219 4.53125C74.2708 4.15625 74.6667 3.8724 75.1094 3.67969C75.5521 3.48698 76.0104 3.39062 76.4844 3.39062C77.0885 3.39062 77.6094 3.49479 78.0469 3.70312C78.4896 3.91146 78.8516 4.20312 79.1328 4.57812C79.4141 4.94792 79.6224 5.38542 79.7578 5.89062C79.8932 6.39062 79.9609 6.9375 79.9609 7.53125V8.17969H73.6484V7H78.5156V6.89062C78.4948 6.51562 78.4167 6.15104 78.2812 5.79688C78.151 5.44271 77.9427 5.15104 77.6562 4.92188C77.3698 4.69271 76.9792 4.57812 76.4844 4.57812C76.1562 4.57812 75.8542 4.64844 75.5781 4.78906C75.3021 4.92448 75.0651 5.1276 74.8672 5.39844C74.6693 5.66927 74.5156 6 74.4062 6.39062C74.2969 6.78125 74.2422 7.23177 74.2422 7.74219V8.07031C74.2422 8.47135 74.2969 8.84896 74.4062 9.20312C74.5208 9.55208 74.6849 9.85938 74.8984 10.125C75.1172 10.3906 75.3802 10.599 75.6875 10.75C76 10.901 76.3542 10.9766 76.75 10.9766C77.2604 10.9766 77.6927 10.8724 78.0469 10.6641C78.401 10.4557 78.7109 10.1771 78.9766 9.82812L79.8516 10.5234C79.6693 10.7995 79.4375 11.0625 79.1562 11.3125C78.875 11.5625 78.5286 11.7656 78.1172 11.9219C77.7109 12.0781 77.2292 12.1562 76.6719 12.1562Z" fill="#0A142F"/>
</svg>
