<svg width="94" height="16" viewBox="0 0 94 16" fill="none" xmlns="http://www.w3.org/2000/svg">
<path opacity="0.5" d="M15.75 8C15.75 11.875 12.9062 15.0938 9.1875 15.6562V10.25H11L11.3438 8H9.1875V6.5625C9.1875 5.9375 9.5 5.34375 10.4688 5.34375H11.4375V3.4375C11.4375 3.4375 10.5625 3.28125 9.6875 3.28125C7.9375 3.28125 6.78125 4.375 6.78125 6.3125V8H4.8125V10.25H6.78125V15.6562C3.0625 15.0938 0.25 11.875 0.25 8C0.25 3.71875 3.71875 0.25 8 0.25C12.2812 0.25 15.75 3.71875 15.75 8ZM26.7656 2.625V14H25.2578V2.625H26.7656ZM31.5312 7.74219V8.97656H26.4375V7.74219H31.5312ZM32.3047 2.625V3.85938H26.4375V2.625H32.3047ZM38.6016 12.5547V8.20312C38.6016 7.86979 38.5339 7.58073 38.3984 7.33594C38.2682 7.08594 38.0703 6.89323 37.8047 6.75781C37.5391 6.6224 37.2109 6.55469 36.8203 6.55469C36.4557 6.55469 36.1354 6.61719 35.8594 6.74219C35.5885 6.86719 35.375 7.03125 35.2188 7.23438C35.0677 7.4375 34.9922 7.65625 34.9922 7.89062H33.5469C33.5469 7.58854 33.625 7.28906 33.7812 6.99219C33.9375 6.69531 34.1615 6.42708 34.4531 6.1875C34.75 5.94271 35.1042 5.75 35.5156 5.60938C35.9323 5.46354 36.3958 5.39062 36.9062 5.39062C37.5208 5.39062 38.0625 5.49479 38.5312 5.70312C39.0052 5.91146 39.375 6.22656 39.6406 6.64844C39.9115 7.0651 40.0469 7.58854 40.0469 8.21875V12.1562C40.0469 12.4375 40.0703 12.737 40.1172 13.0547C40.1693 13.3724 40.2448 13.6458 40.3438 13.875V14H38.8359C38.763 13.8333 38.7057 13.612 38.6641 13.3359C38.6224 13.0547 38.6016 12.7943 38.6016 12.5547ZM38.8516 8.875L38.8672 9.89062H37.4062C36.9948 9.89062 36.6276 9.92448 36.3047 9.99219C35.9818 10.0547 35.7109 10.151 35.4922 10.2812C35.2734 10.4115 35.1068 10.5755 34.9922 10.7734C34.8776 10.9661 34.8203 11.1927 34.8203 11.4531C34.8203 11.7188 34.8802 11.9609 35 12.1797C35.1198 12.3984 35.2995 12.5729 35.5391 12.7031C35.7839 12.8281 36.0833 12.8906 36.4375 12.8906C36.8802 12.8906 37.2708 12.7969 37.6094 12.6094C37.9479 12.4219 38.2161 12.1927 38.4141 11.9219C38.6172 11.651 38.7266 11.388 38.7422 11.1328L39.3594 11.8281C39.3229 12.0469 39.224 12.2891 39.0625 12.5547C38.901 12.8203 38.6849 13.0755 38.4141 13.3203C38.1484 13.5599 37.8307 13.7604 37.4609 13.9219C37.0964 14.0781 36.6849 14.1562 36.2266 14.1562C35.6536 14.1562 35.151 14.0443 34.7188 13.8203C34.2917 13.5964 33.9583 13.2969 33.7188 12.9219C33.4844 12.5417 33.3672 12.1172 33.3672 11.6484C33.3672 11.1953 33.4557 10.7969 33.6328 10.4531C33.8099 10.1042 34.0651 9.8151 34.3984 9.58594C34.7318 9.35156 35.1328 9.17448 35.6016 9.05469C36.0703 8.9349 36.5938 8.875 37.1719 8.875H38.8516ZM45.7031 12.9688C46.0469 12.9688 46.3646 12.8984 46.6562 12.7578C46.9479 12.6172 47.1875 12.4245 47.375 12.1797C47.5625 11.9297 47.6693 11.6458 47.6953 11.3281H49.0703C49.0443 11.8281 48.875 12.2943 48.5625 12.7266C48.2552 13.1536 47.8516 13.5 47.3516 13.7656C46.8516 14.026 46.3021 14.1562 45.7031 14.1562C45.0677 14.1562 44.513 14.0443 44.0391 13.8203C43.5703 13.5964 43.1797 13.2891 42.8672 12.8984C42.5599 12.5078 42.3281 12.0599 42.1719 11.5547C42.0208 11.0443 41.9453 10.5052 41.9453 9.9375V9.60938C41.9453 9.04167 42.0208 8.50521 42.1719 8C42.3281 7.48958 42.5599 7.03906 42.8672 6.64844C43.1797 6.25781 43.5703 5.95052 44.0391 5.72656C44.513 5.5026 45.0677 5.39062 45.7031 5.39062C46.3646 5.39062 46.9427 5.52604 47.4375 5.79688C47.9323 6.0625 48.3203 6.42708 48.6016 6.89062C48.888 7.34896 49.0443 7.86979 49.0703 8.45312H47.6953C47.6693 8.10417 47.5703 7.78906 47.3984 7.50781C47.2318 7.22656 47.0026 7.0026 46.7109 6.83594C46.4245 6.66406 46.0885 6.57812 45.7031 6.57812C45.2604 6.57812 44.888 6.66667 44.5859 6.84375C44.2891 7.01562 44.0521 7.25 43.875 7.54688C43.7031 7.83854 43.5781 8.16406 43.5 8.52344C43.4271 8.8776 43.3906 9.23958 43.3906 9.60938V9.9375C43.3906 10.3073 43.4271 10.6719 43.5 11.0312C43.5729 11.3906 43.6953 11.7161 43.8672 12.0078C44.0443 12.2995 44.2812 12.5339 44.5781 12.7109C44.8802 12.8828 45.2552 12.9688 45.7031 12.9688ZM54.2031 14.1562C53.6146 14.1562 53.0807 14.0573 52.6016 13.8594C52.1276 13.6562 51.7188 13.3724 51.375 13.0078C51.0365 12.6432 50.776 12.2109 50.5938 11.7109C50.4115 11.2109 50.3203 10.6641 50.3203 10.0703V9.74219C50.3203 9.05469 50.4219 8.44271 50.625 7.90625C50.8281 7.36458 51.1042 6.90625 51.4531 6.53125C51.8021 6.15625 52.1979 5.8724 52.6406 5.67969C53.0833 5.48698 53.5417 5.39062 54.0156 5.39062C54.6198 5.39062 55.1406 5.49479 55.5781 5.70312C56.0208 5.91146 56.3828 6.20312 56.6641 6.57812C56.9453 6.94792 57.1536 7.38542 57.2891 7.89062C57.4245 8.39062 57.4922 8.9375 57.4922 9.53125V10.1797H51.1797V9H56.0469V8.89062C56.026 8.51562 55.9479 8.15104 55.8125 7.79688C55.6823 7.44271 55.474 7.15104 55.1875 6.92188C54.901 6.69271 54.5104 6.57812 54.0156 6.57812C53.6875 6.57812 53.3854 6.64844 53.1094 6.78906C52.8333 6.92448 52.5964 7.1276 52.3984 7.39844C52.2005 7.66927 52.0469 8 51.9375 8.39062C51.8281 8.78125 51.7734 9.23177 51.7734 9.74219V10.0703C51.7734 10.4714 51.8281 10.849 51.9375 11.2031C52.0521 11.5521 52.2161 11.8594 52.4297 12.125C52.6484 12.3906 52.9115 12.599 53.2188 12.75C53.5312 12.901 53.8854 12.9766 54.2812 12.9766C54.7917 12.9766 55.224 12.8724 55.5781 12.6641C55.9323 12.4557 56.2422 12.1771 56.5078 11.8281L57.3828 12.5234C57.2005 12.7995 56.9688 13.0625 56.6875 13.3125C56.4062 13.5625 56.0599 13.7656 55.6484 13.9219C55.2422 14.0781 54.7604 14.1562 54.2031 14.1562ZM59.1719 2H60.625V12.3594L60.5 14H59.1719V2ZM66.3359 9.70312V9.86719C66.3359 10.4818 66.263 11.0521 66.1172 11.5781C65.9714 12.099 65.7578 12.5521 65.4766 12.9375C65.1953 13.3229 64.8516 13.6224 64.4453 13.8359C64.0391 14.0495 63.5729 14.1562 63.0469 14.1562C62.5104 14.1562 62.0391 14.0651 61.6328 13.8828C61.2318 13.6953 60.8932 13.4271 60.6172 13.0781C60.3411 12.7292 60.1198 12.3073 59.9531 11.8125C59.7917 11.3177 59.6797 10.7604 59.6172 10.1406V9.42188C59.6797 8.79688 59.7917 8.23698 59.9531 7.74219C60.1198 7.2474 60.3411 6.82552 60.6172 6.47656C60.8932 6.1224 61.2318 5.85417 61.6328 5.67188C62.0339 5.48438 62.5 5.39062 63.0312 5.39062C63.5625 5.39062 64.0339 5.49479 64.4453 5.70312C64.8568 5.90625 65.2005 6.19792 65.4766 6.57812C65.7578 6.95833 65.9714 7.41406 66.1172 7.94531C66.263 8.47135 66.3359 9.05729 66.3359 9.70312ZM64.8828 9.86719V9.70312C64.8828 9.28125 64.8438 8.88542 64.7656 8.51562C64.6875 8.14062 64.5625 7.8125 64.3906 7.53125C64.2188 7.24479 63.9922 7.02083 63.7109 6.85938C63.4297 6.69271 63.0833 6.60938 62.6719 6.60938C62.3073 6.60938 61.9896 6.67188 61.7188 6.79688C61.4531 6.92188 61.2266 7.09115 61.0391 7.30469C60.8516 7.51302 60.6979 7.7526 60.5781 8.02344C60.4635 8.28906 60.3776 8.5651 60.3203 8.85156V10.7344C60.4036 11.099 60.5391 11.4505 60.7266 11.7891C60.9193 12.1224 61.1745 12.3958 61.4922 12.6094C61.8151 12.8229 62.2135 12.9297 62.6875 12.9297C63.0781 12.9297 63.4115 12.8516 63.6875 12.6953C63.9688 12.5339 64.1953 12.3125 64.3672 12.0312C64.5443 11.75 64.6745 11.4245 64.7578 11.0547C64.8411 10.6849 64.8828 10.2891 64.8828 9.86719ZM67.7812 9.86719V9.6875C67.7812 9.07812 67.8698 8.51302 68.0469 7.99219C68.224 7.46615 68.4792 7.01042 68.8125 6.625C69.1458 6.23438 69.5495 5.93229 70.0234 5.71875C70.4974 5.5 71.0286 5.39062 71.6172 5.39062C72.2109 5.39062 72.7448 5.5 73.2188 5.71875C73.6979 5.93229 74.1042 6.23438 74.4375 6.625C74.776 7.01042 75.0339 7.46615 75.2109 7.99219C75.388 8.51302 75.4766 9.07812 75.4766 9.6875V9.86719C75.4766 10.4766 75.388 11.0417 75.2109 11.5625C75.0339 12.0833 74.776 12.5391 74.4375 12.9297C74.1042 13.3151 73.7005 13.6172 73.2266 13.8359C72.7578 14.0495 72.2266 14.1562 71.6328 14.1562C71.0391 14.1562 70.5052 14.0495 70.0312 13.8359C69.5573 13.6172 69.151 13.3151 68.8125 12.9297C68.4792 12.5391 68.224 12.0833 68.0469 11.5625C67.8698 11.0417 67.7812 10.4766 67.7812 9.86719ZM69.2266 9.6875V9.86719C69.2266 10.2891 69.276 10.6875 69.375 11.0625C69.474 11.4323 69.6224 11.7604 69.8203 12.0469C70.0234 12.3333 70.276 12.5599 70.5781 12.7266C70.8802 12.888 71.2318 12.9688 71.6328 12.9688C72.0286 12.9688 72.375 12.888 72.6719 12.7266C72.974 12.5599 73.224 12.3333 73.4219 12.0469C73.6198 11.7604 73.7682 11.4323 73.8672 11.0625C73.9714 10.6875 74.0234 10.2891 74.0234 9.86719V9.6875C74.0234 9.27083 73.9714 8.8776 73.8672 8.50781C73.7682 8.13281 73.6172 7.80208 73.4141 7.51562C73.2161 7.22396 72.9661 6.99479 72.6641 6.82812C72.3672 6.66146 72.0182 6.57812 71.6172 6.57812C71.2214 6.57812 70.8724 6.66146 70.5703 6.82812C70.2734 6.99479 70.0234 7.22396 69.8203 7.51562C69.6224 7.80208 69.474 8.13281 69.375 8.50781C69.276 8.8776 69.2266 9.27083 69.2266 9.6875ZM76.9062 9.86719V9.6875C76.9062 9.07812 76.9948 8.51302 77.1719 7.99219C77.349 7.46615 77.6042 7.01042 77.9375 6.625C78.2708 6.23438 78.6745 5.93229 79.1484 5.71875C79.6224 5.5 80.1536 5.39062 80.7422 5.39062C81.3359 5.39062 81.8698 5.5 82.3438 5.71875C82.8229 5.93229 83.2292 6.23438 83.5625 6.625C83.901 7.01042 84.1589 7.46615 84.3359 7.99219C84.513 8.51302 84.6016 9.07812 84.6016 9.6875V9.86719C84.6016 10.4766 84.513 11.0417 84.3359 11.5625C84.1589 12.0833 83.901 12.5391 83.5625 12.9297C83.2292 13.3151 82.8255 13.6172 82.3516 13.8359C81.8828 14.0495 81.3516 14.1562 80.7578 14.1562C80.1641 14.1562 79.6302 14.0495 79.1562 13.8359C78.6823 13.6172 78.276 13.3151 77.9375 12.9297C77.6042 12.5391 77.349 12.0833 77.1719 11.5625C76.9948 11.0417 76.9062 10.4766 76.9062 9.86719ZM78.3516 9.6875V9.86719C78.3516 10.2891 78.401 10.6875 78.5 11.0625C78.599 11.4323 78.7474 11.7604 78.9453 12.0469C79.1484 12.3333 79.401 12.5599 79.7031 12.7266C80.0052 12.888 80.3568 12.9688 80.7578 12.9688C81.1536 12.9688 81.5 12.888 81.7969 12.7266C82.099 12.5599 82.349 12.3333 82.5469 12.0469C82.7448 11.7604 82.8932 11.4323 82.9922 11.0625C83.0964 10.6875 83.1484 10.2891 83.1484 9.86719V9.6875C83.1484 9.27083 83.0964 8.8776 82.9922 8.50781C82.8932 8.13281 82.7422 7.80208 82.5391 7.51562C82.3411 7.22396 82.0911 6.99479 81.7891 6.82812C81.4922 6.66146 81.1432 6.57812 80.7422 6.57812C80.3464 6.57812 79.9974 6.66146 79.6953 6.82812C79.3984 6.99479 79.1484 7.22396 78.9453 7.51562C78.7474 7.80208 78.599 8.13281 78.5 8.50781C78.401 8.8776 78.3516 9.27083 78.3516 9.6875ZM87.8672 2V14H86.4141V2H87.8672ZM93.0312 5.54688L89.3438 9.49219L87.2812 11.6328L87.1641 10.0938L88.6406 8.32812L91.2656 5.54688H93.0312ZM91.7109 14L88.6953 9.96875L89.4453 8.67969L93.4141 14H91.7109Z" fill="#0A142F"/>
</svg>
