<svg width="22" height="23" viewBox="0 0 22 23" fill="none" xmlns="http://www.w3.org/2000/svg">
<path d="M8.06738 16.1689C8.06738 16.1045 8.00293 16.04 7.90625 16.04C7.80957 16.04 7.74512 16.1045 7.74512 16.1689C7.74512 16.2334 7.80957 16.2979 7.90625 16.2656C8.00293 16.2656 8.06738 16.2334 8.06738 16.1689ZM7.06836 16.0078C7.06836 16.0723 7.13281 16.1689 7.22949 16.1689C7.29395 16.2012 7.39062 16.1689 7.42285 16.1045C7.42285 16.04 7.39062 15.9756 7.29395 15.9434C7.19727 15.9111 7.10059 15.9434 7.06836 16.0078ZM8.51855 15.9756C8.42188 15.9756 8.35742 16.04 8.35742 16.1367C8.35742 16.2012 8.4541 16.2334 8.55078 16.2012C8.64746 16.1689 8.71191 16.1367 8.67969 16.0723C8.67969 16.0078 8.58301 15.9434 8.51855 15.9756ZM10.6133 3.60059C6.16602 3.60059 2.75 7.0166 2.75 11.4639C2.75 15.041 4.97363 18.1025 8.19629 19.1982C8.61523 19.2627 8.74414 19.0049 8.74414 18.8115C8.74414 18.5859 8.74414 17.4902 8.74414 16.8135C8.74414 16.8135 6.48828 17.2969 6.00488 15.8467C6.00488 15.8467 5.65039 14.9121 5.13477 14.6865C5.13477 14.6865 4.39355 14.1709 5.16699 14.1709C5.16699 14.1709 5.97266 14.2354 6.42383 15.0088C7.13281 16.2656 8.29297 15.9111 8.77637 15.6855C8.84082 15.1699 9.03418 14.8154 9.29199 14.5898C7.4873 14.3965 5.65039 14.1387 5.65039 11.0449C5.65039 10.1426 5.9082 9.72363 6.42383 9.14355C6.32715 8.91797 6.06934 8.08008 6.52051 6.95215C7.16504 6.75879 8.74414 7.82227 8.74414 7.82227C9.38867 7.62891 10.0654 7.56445 10.7422 7.56445C11.4512 7.56445 12.1279 7.62891 12.7725 7.82227C12.7725 7.82227 14.3193 6.72656 14.9961 6.95215C15.4473 8.08008 15.1572 8.91797 15.0928 9.14355C15.6084 9.72363 15.9307 10.1426 15.9307 11.0449C15.9307 14.1387 14.0293 14.3965 12.2246 14.5898C12.5146 14.8477 12.7725 15.3311 12.7725 16.1045C12.7725 17.168 12.7402 18.5215 12.7402 18.7793C12.7402 19.0049 12.9014 19.2627 13.3203 19.166C16.543 18.1025 18.7344 15.041 18.7344 11.4639C18.7344 7.0166 15.0928 3.60059 10.6133 3.60059ZM5.87598 14.7188C5.81152 14.751 5.84375 14.8477 5.87598 14.9121C5.94043 14.9443 6.00488 14.9766 6.06934 14.9443C6.10156 14.9121 6.10156 14.8154 6.03711 14.751C5.97266 14.7188 5.9082 14.6865 5.87598 14.7188ZM5.52148 14.4609C5.48926 14.5254 5.52148 14.5576 5.58594 14.5898C5.65039 14.6221 5.71484 14.6221 5.74707 14.5576C5.74707 14.5254 5.71484 14.4932 5.65039 14.4609C5.58594 14.4287 5.55371 14.4287 5.52148 14.4609ZM6.55273 15.6211C6.52051 15.6533 6.52051 15.75 6.61719 15.8145C6.68164 15.8789 6.77832 15.9111 6.81055 15.8467C6.84277 15.8145 6.84277 15.7178 6.77832 15.6533C6.71387 15.5889 6.61719 15.5566 6.55273 15.6211ZM6.19824 15.1377C6.13379 15.1699 6.13379 15.2666 6.19824 15.3311C6.2627 15.3955 6.32715 15.4277 6.3916 15.3955C6.42383 15.3633 6.42383 15.2666 6.3916 15.2021C6.32715 15.1377 6.2627 15.1055 6.19824 15.1377Z" fill="#6B7280"/>
</svg>
