<svg width="533" height="10" viewBox="0 0 533 10" fill="none" xmlns="http://www.w3.org/2000/svg">
<path fill-rule="evenodd" clip-rule="evenodd" d="M12.2525 1.68631C23.5492 2.2401 53.2374 2.26779 133.83 2.32317C259.678 2.40624 359.557 3.01541 387.316 3.90147C389.521 3.98454 213.113 4.59371 194.997 4.15068C166.756 3.43075 31.8839 4.03992 4.74425 4.87061C-2.97055 5.09213 -0.077469 5.86744 4.95093 6.03358C12.8035 6.31047 33.8816 6.28278 91.674 6.2274C132.314 6.19971 455.648 6.83657 490.984 7.97185C510.822 8.60871 522.877 9.19019 528.387 9.05174C533.002 8.94098 533.071 8.60871 529.076 7.69495C526.39 7.08578 529.42 6.72581 531.349 6.55968C534.311 6.28278 533.071 5.34133 529.352 4.59371C524.323 3.5692 515.644 3.59689 519.777 4.6214C520.672 4.84292 520.879 5.39671 517.71 5.28595C508.48 4.95368 443.249 2.68313 425.546 2.29548C236.533 -1.91334 52.0663 1.1602 13.0101 0.135686C-0.835204 -0.251968 5.50205 1.35403 12.2525 1.68631Z" fill="#25B4F8"/>
</svg>
