<svg width="43" height="40" viewBox="0 0 43 40" fill="none" xmlns="http://www.w3.org/2000/svg">
<path d="M42.6669 20.418C42.6669 21.0508 41.9544 21.5738 41.0299 21.6566L40.7729 21.668L2.89415 21.668C1.84815 21.668 1.00021 21.1083 1.00021 20.418C1.00021 19.7851 1.71272 19.2621 2.63715 19.1794L2.89415 19.168L40.7729 19.168C41.8189 19.168 42.6669 19.7276 42.6669 20.418Z" fill="white"/>
<path d="M12.3819 29.6139C12.8711 30.101 12.8728 30.8924 12.3857 31.3816C11.9428 31.8263 11.2485 31.8682 10.7584 31.5061L10.6179 31.3854L0.534565 21.3454C0.0885038 20.9013 0.047925 20.2044 0.412849 19.7143L0.534492 19.5739L10.6178 9.53226C11.107 9.04511 11.8984 9.04675 12.3856 9.53592C12.8284 9.98061 12.8674 10.6751 12.5032 11.1637L12.3819 11.3037L3.18854 20.4601L12.3819 29.6139Z" fill="white"/>
</svg>
