<svg width="168" height="53" viewBox="0 0 168 53" fill="none" xmlns="http://www.w3.org/2000/svg">
<g clip-path="url(#clip0_77_259)">
<path d="M77.4973 17.0962C77.7179 17.336 77.8313 17.6319 77.8313 17.9918V31.0354C77.8313 31.4249 77.7005 31.7466 77.4419 32.0101C77.1834 32.2706 76.861 32.4024 76.4774 32.4024C76.2711 32.4024 76.0675 32.37 75.8674 32.3026C75.6669 32.2355 75.5217 32.1419 75.4343 32.0218L67.2828 21.5942V31.1469C67.2828 31.5037 67.1666 31.8023 66.9371 32.0421C66.7076 32.2823 66.4084 32.3993 66.0364 32.3993C65.6645 32.3993 65.3916 32.2792 65.1706 32.0421C64.9499 31.8051 64.8365 31.5068 64.8365 31.1469V18.103C64.8365 17.7166 64.9674 17.3918 65.2259 17.1286C65.4845 16.8681 65.8069 16.7363 66.1932 16.7363C66.4142 16.7363 66.6348 16.78 66.8469 16.8709C67.0621 16.9617 67.2216 17.0787 67.3234 17.228L75.4087 27.6085V17.9887C75.4087 17.6319 75.5221 17.3333 75.7543 17.0935C75.9839 16.8561 76.2773 16.7363 76.6318 16.7363C76.9863 16.7363 77.2766 16.8564 77.4976 17.0935L77.4973 17.0962ZM89.5101 27.0057C89.2493 27.2267 88.9184 27.3461 88.5777 27.3422H81.2479C81.4248 28.223 81.832 28.9111 82.4679 29.4114C83.1042 29.9117 83.8218 30.1604 84.6235 30.1604C85.2308 30.1604 85.7045 30.1047 86.0443 29.9936C86.3842 29.8824 86.6544 29.7623 86.8548 29.6368C87.0553 29.5108 87.192 29.4231 87.2647 29.3791C87.5318 29.2445 87.7815 29.1771 88.0195 29.1771C88.3304 29.1771 88.5978 29.2882 88.8188 29.5136C89.0394 29.7362 89.1528 29.9994 89.1528 30.2981C89.1528 30.702 88.9465 31.0677 88.5312 31.3956C88.1155 31.738 87.5608 32.0304 86.8665 32.2675C86.169 32.5049 85.4661 32.6246 84.7574 32.6246C83.5141 32.6246 82.4273 32.3642 81.5034 31.8402C80.5767 31.3192 79.8649 30.5995 79.3594 29.6805C78.8567 28.7645 78.6039 27.7313 78.6039 26.5811C78.6039 25.2995 78.8714 24.1726 79.4032 23.2041C79.9346 22.2352 80.6375 21.492 81.5123 20.9769C82.3866 20.4619 83.3191 20.2042 84.3096 20.2042C85.3004 20.2042 86.21 20.4736 87.0755 21.0093C87.9413 21.5447 88.633 22.2703 89.1528 23.1803C89.6678 24.0777 89.9365 25.097 89.9316 26.1335C89.9169 26.4906 89.7744 26.7831 89.5101 27.0057ZM81.2711 25.1033H87.0902V24.9451C87.0321 24.3189 86.7271 23.7804 86.1779 23.3355C85.6287 22.8882 85.007 22.6656 84.313 22.6656C82.5957 22.6656 81.5819 23.479 81.2711 25.1033ZM100.259 20.8218C100.512 21.0822 100.637 21.407 100.637 21.7962V27.4798C100.637 29.0893 100.196 30.3507 99.3154 31.2611C98.4349 32.1712 97.18 32.6246 95.5501 32.6246C93.9202 32.6246 92.6708 32.1712 91.7965 31.2608C90.9221 30.3507 90.4862 29.0893 90.4862 27.4795V21.7965C90.4862 21.4077 90.6113 21.0853 90.864 20.8221C91.1168 20.5617 91.4334 20.4299 91.8197 20.4299C92.2063 20.4299 92.5229 20.5617 92.7757 20.8221C93.0284 21.0826 93.1534 21.4074 93.1534 21.7965V27.4801C93.1534 28.3902 93.3536 29.0663 93.7519 29.5053C94.1528 29.9444 94.7512 30.1666 95.5501 30.1666C96.349 30.1666 96.971 29.9471 97.3716 29.5053C97.7726 29.0663 97.9701 28.3902 97.9701 27.4801V21.7962C97.9701 21.4074 98.0951 21.085 98.3478 20.8218C98.6006 20.5613 98.9172 20.4295 99.3035 20.4295C99.6901 20.4295 100.007 20.5613 100.259 20.8218ZM109.568 20.5847C109.87 20.8393 110.024 21.138 110.024 21.4803C110.024 21.9427 109.905 22.2909 109.669 22.5194C109.431 22.7503 109.149 22.8645 108.824 22.8645C108.603 22.8645 108.351 22.8119 108.068 22.7062C108.025 22.6918 107.923 22.6625 107.769 22.6157C107.607 22.5704 107.438 22.5478 107.27 22.5483C106.884 22.5483 106.514 22.6687 106.16 22.9054C105.805 23.1456 105.512 23.5055 105.282 23.9913C105.053 24.4771 104.937 25.0534 104.937 25.7237V31.0268C104.937 31.4159 104.812 31.738 104.559 32.0012C104.306 32.2616 103.99 32.3934 103.603 32.3934C103.217 32.3934 102.9 32.2616 102.648 32.0012C102.395 31.7407 102.27 31.4163 102.27 31.0268V21.7876C102.27 21.3984 102.395 21.0764 102.648 20.8128C102.9 20.5524 103.217 20.4206 103.603 20.4206C103.99 20.4206 104.306 20.5524 104.559 20.8128C104.812 21.0733 104.937 21.3984 104.937 21.7876V22.0773C105.277 21.4655 105.765 21.0003 106.401 20.6783C107.037 20.3566 107.72 20.1983 108.443 20.1983C108.888 20.1983 109.263 20.3243 109.565 20.5789L109.568 20.5847ZM120.372 29.6368C119.84 30.5847 119.109 31.3192 118.185 31.8402C117.258 32.3611 116.241 32.6246 115.131 32.6246C114.021 32.6246 112.984 32.3642 112.066 31.8402C111.148 31.3192 110.422 30.5847 109.89 29.6368C109.358 28.6885 109.091 27.6202 109.091 26.4263C109.091 25.2324 109.358 24.164 109.89 23.2158C110.422 22.2675 111.148 21.5299 112.066 21C112.984 20.4705 114.007 20.2073 115.131 20.2073C116.256 20.2073 117.261 20.4736 118.185 21.0003C119.109 21.5302 119.838 22.2675 120.372 23.2158C120.904 24.164 121.171 25.232 121.171 26.4259C121.171 27.6202 120.904 28.6885 120.372 29.6368ZM118.051 24.4682C117.749 23.8946 117.339 23.4498 116.831 23.1367C116.322 22.8236 115.753 22.6653 115.131 22.6653C114.509 22.6653 113.943 22.8205 113.432 23.1367C112.92 23.4498 112.513 23.8946 112.209 24.4682C111.906 25.0417 111.752 25.6944 111.752 26.4259C111.752 27.1578 111.903 27.8074 112.208 28.3723C112.511 28.94 112.92 29.379 113.432 29.6922C113.943 30.0053 114.509 30.1635 115.131 30.1635C115.753 30.1635 116.32 30.0053 116.831 29.6922C117.342 29.379 117.749 28.94 118.051 28.3723C118.353 27.8046 118.507 27.1578 118.507 26.4263C118.507 25.6944 118.356 25.0414 118.051 24.4682Z" fill="#94A9C1"/>
<path d="M147.844 20.822C148.097 21.0824 148.222 21.4072 148.222 21.7964V27.48C148.222 29.0895 147.78 30.3509 146.9 31.2613C146.019 32.1714 144.764 32.6248 143.135 32.6248C141.505 32.6248 140.255 32.1714 139.381 31.261C138.506 30.3509 138.071 29.0895 138.071 27.4797V21.7967C138.071 21.4079 138.196 21.0855 138.448 20.8223C138.701 20.5619 139.018 20.4301 139.404 20.4301C139.791 20.4301 140.107 20.5619 140.36 20.8223C140.613 21.0828 140.738 21.4076 140.738 21.7967V27.4803C140.738 28.3904 140.938 29.0665 141.336 29.5055C141.737 29.9446 142.336 30.1668 143.135 30.1668C143.934 30.1668 144.555 29.9473 144.956 29.5055C145.357 29.0665 145.554 28.3904 145.554 27.4803V21.7964C145.554 21.4076 145.679 21.0852 145.932 20.822C146.185 20.5615 146.502 20.4297 146.888 20.4297C147.274 20.4297 147.591 20.5615 147.844 20.822ZM157.149 20.5849C157.451 20.8395 157.605 21.1382 157.605 21.4805C157.605 21.9429 157.486 22.2911 157.251 22.5196C157.013 22.7505 156.731 22.8647 156.406 22.8647C156.185 22.8647 155.932 22.8121 155.65 22.7064C155.607 22.692 155.505 22.6627 155.351 22.6159C155.188 22.5706 155.02 22.548 154.851 22.5485C154.465 22.5485 154.096 22.6689 153.741 22.9056C153.387 23.1458 153.094 23.5057 152.864 23.9915C152.635 24.4773 152.518 25.0536 152.518 25.7239V31.027C152.518 31.4161 152.393 31.7382 152.141 32.0014C151.888 32.2618 151.571 32.3936 151.185 32.3936C150.798 32.3936 150.482 32.2618 150.229 32.0014C149.976 31.7409 149.851 31.4165 149.851 31.027V21.7878C149.851 21.3986 149.976 21.0766 150.229 20.813C150.482 20.5526 150.798 20.4208 151.185 20.4208C151.571 20.4208 151.888 20.5526 152.141 20.813C152.393 21.0735 152.518 21.3986 152.518 21.7878V22.0775C152.858 21.4657 153.346 21.0005 153.983 20.6785C154.619 20.3568 155.301 20.1985 156.025 20.1985C156.469 20.1985 156.844 20.3245 157.146 20.5791L157.149 20.5849ZM167.579 27.0059C167.318 27.2269 166.987 27.3463 166.646 27.3424H159.317C159.494 28.2232 159.901 28.9113 160.537 29.4116C161.173 29.9119 161.891 30.1606 162.692 30.1606C163.3 30.1606 163.773 30.1049 164.113 29.9938C164.453 29.8826 164.723 29.7625 164.924 29.637C165.124 29.511 165.26 29.4233 165.333 29.3793C165.601 29.2447 165.85 29.1773 166.088 29.1773C166.399 29.1773 166.667 29.2884 166.888 29.5138C167.108 29.7364 167.222 29.9996 167.222 30.2983C167.222 30.7022 167.015 31.0679 166.6 31.3958C166.184 31.7382 165.63 32.0306 164.935 32.2677C164.238 32.5051 163.535 32.6248 162.826 32.6248C161.583 32.6248 160.496 32.3644 159.572 31.8404C158.646 31.3194 157.934 30.5997 157.428 29.6807C156.925 28.7647 156.673 27.7315 156.673 26.5813C156.673 25.2997 156.94 24.1728 157.472 23.2043C158.003 22.2354 158.706 21.4922 159.581 20.9771C160.455 20.4621 161.388 20.2044 162.378 20.2044C163.369 20.2044 164.278 20.4738 165.144 21.0095C166.01 21.5449 166.702 22.2705 167.222 23.1805C167.737 24.0779 168.005 25.0972 168 26.1337C167.986 26.4908 167.843 26.7833 167.579 27.0059ZM159.34 25.1035H165.159V24.9453C165.101 24.3191 164.796 23.7806 164.247 23.3357C163.697 22.8884 163.076 22.6658 162.382 22.6658C160.664 22.6658 159.651 23.4792 159.34 25.1035ZM134.933 30.278C135.513 29.651 135.987 28.9322 136.336 28.1502C136.833 27.0468 137.08 25.8526 137.08 24.5709C137.08 23.0928 136.755 21.741 136.104 20.5089C135.453 19.2795 134.553 18.3051 133.405 17.5881C132.257 16.8711 130.965 16.5139 129.529 16.5139C128.094 16.5139 126.801 16.8711 125.654 17.5881C124.506 18.3051 123.611 19.2768 122.966 20.5089C122.322 21.7406 121.999 23.0928 121.999 24.5709C121.999 25.8526 122.243 27.0468 122.731 28.1502C123.219 29.2533 123.908 30.1813 124.797 30.9362C125.686 31.6883 126.525 32.1363 127.862 32.4466C129.433 32.8092 131.171 32.4466 131.171 32.4466C131.705 32.3293 132.208 32.1538 132.687 31.9284L134.183 33.7516C134.42 34.0307 134.756 34.2048 135.119 34.2363C135.482 34.2678 135.842 34.1543 136.123 33.9202C136.403 33.6862 136.581 33.3503 136.618 32.9853C136.654 32.6203 136.547 32.2553 136.319 31.9694L134.93 30.2776L134.933 30.278ZM129.53 29.9384C128.626 29.9384 127.824 29.7044 127.118 29.233C126.412 28.7617 125.866 28.1179 125.474 27.2983C125.082 26.4791 124.884 25.5687 124.884 24.5678C124.884 23.5669 125.079 22.66 125.474 21.8373C125.866 21.0181 126.415 20.3716 127.118 19.903C127.821 19.435 128.623 19.1976 129.529 19.1976C130.436 19.1976 131.217 19.4378 131.929 19.9147C132.641 20.3919 133.196 21.0384 133.594 21.8494C133.995 22.6627 134.192 23.5669 134.192 24.5678C134.192 25.5691 133.992 26.4733 133.594 27.2866C133.193 28.1004 132.638 28.7441 131.929 29.2213C131.217 29.6982 130.418 29.9384 129.529 29.9384H129.53Z" fill="#3383F1"/>
<path d="M23.656 7.47643C31.7543 6.89151 39.6135 9.84361 37.407 16.2949C37.4343 17.0484 38.8928 19.4465 38.4624 21.4077C38.3497 21.9272 38.3019 22.2919 38.3053 22.5775H43.6745V14.9633C43.9136 14.6124 44.2074 14.4059 44.5284 14.4059C44.8973 14.4059 45.232 14.6846 45.4848 15.1353C46.2123 15.8751 47.2848 16.2673 48.4392 16.0471C49.7235 15.8028 50.7618 14.7672 51.0111 13.4769C51.421 11.3644 49.8294 9.5133 47.8039 9.5133C46.9528 9.51245 46.1351 9.84712 45.5258 10.4457C45.2696 10.9412 44.9144 11.2474 44.525 11.2474C44.2244 11.2474 43.9444 11.065 43.7155 10.7554H43.6711V7.13924C43.6711 4.55874 41.5945 2.46338 39.0294 2.46338C34.7463 3.78803 30.3608 3.81212 25.8727 2.46338H25.5107C22.949 2.46338 20.869 4.5553 20.869 7.13924V7.45578H23.5228C23.5672 7.45578 23.6048 7.46955 23.6458 7.47643H23.656Z" fill="url(#paint0_linear_77_259)"/>
<path d="M9.69331 24.9691H11.0971C9.80944 21.7487 9.35176 19.0581 9.74113 16.6599C10.7316 10.5665 16.1897 8.37825 22.143 7.62474C22.6451 7.56281 23.1506 7.5112 23.6526 7.47679C23.6117 7.46991 23.5707 7.45615 23.5297 7.45615H13.2523C12.9039 7.2153 12.699 6.91941 12.699 6.59598C12.699 6.22439 12.9756 5.88721 13.4231 5.6326C14.1574 4.89974 14.5468 3.81937 14.3282 2.65642C14.0857 1.36273 13.0576 0.316769 11.7768 0.0656009C9.67965 -0.347279 7.8455 1.25951 7.8455 3.29639C7.84466 4.15378 8.17688 4.97747 8.77112 5.59131C9.26295 5.84936 9.56694 6.20719 9.56694 6.59942C9.56694 6.9022 9.38591 7.18434 9.07851 7.41486V7.45959H4.64173C2.08007 7.45959 0 9.55151 0 12.1355C1.57798 16.9283 1.60872 21.353 0 25.3889V25.7536C0 28.3341 2.07665 30.4295 4.64173 30.4295H8.7233L8.68914 25.9841C8.68914 25.4267 9.13658 24.976 9.6899 24.976L9.69331 24.9691Z" fill="#3383F1"/>
<path d="M35.2791 18.4075C35.0093 17.6952 34.777 17.0794 34.7497 16.3947L34.7326 15.8958L34.8932 15.4244C35.3577 14.0688 35.04 13.3669 34.7156 12.9024C33.5201 11.2165 29.8792 10.0811 25.6541 10.0811C25.1828 10.0811 24.7114 10.0983 24.2367 10.1258V14.6399H24.1923C23.9634 14.9496 23.6834 15.132 23.3828 15.132C22.9934 15.132 22.6382 14.8257 22.382 14.3303C21.7731 13.7311 20.9551 13.3963 20.1039 13.3979C18.297 13.3979 16.8318 14.8739 16.8318 16.694C16.8318 18.5141 18.297 19.9902 20.1039 19.9902C21.0124 19.9902 21.8321 19.6186 22.423 19.0165C22.6758 18.5657 23.0105 18.287 23.3794 18.287C23.7004 18.287 23.9942 18.4969 24.2333 18.8444V24.9791H20.8553L13.9866 24.9688C14.294 25.6673 14.6424 26.3967 15.0352 27.1674C16.2306 29.5036 17.5217 32.2424 18.0682 34.8366L18.0887 34.933L18.1024 35.0328C18.7786 40.0458 17.7847 45.2034 17.3612 47.4054C17.3339 47.5499 17.3065 47.6806 17.286 47.7873C19.5096 46.7001 22.7509 45.5509 27.2628 45.5509C27.8298 45.5509 28.4071 45.5681 28.9945 45.6059C28.9979 45.5371 29.0048 45.4683 29.0116 45.3995C28.7145 45.224 28.5095 44.904 28.5095 44.529V37.049C28.2704 36.698 27.9767 36.4916 27.6556 36.4916C27.2868 36.4916 26.952 36.7703 26.6993 37.221C26.3959 37.5298 26.0347 37.7749 25.6366 37.942C25.2385 38.1091 24.8114 38.195 24.3801 38.1947C24.3187 38.1947 24.2572 38.1878 24.1957 38.1844C22.4743 38.0881 21.108 36.6533 21.108 34.8986C21.108 33.0785 22.5733 31.6024 24.3801 31.6024C25.2313 31.6016 26.0489 31.9362 26.6583 32.5348C26.9145 33.0303 27.2697 33.3365 27.6591 33.3365C27.9596 33.3365 28.2397 33.1542 28.4685 32.8445H28.5129V23.5822C28.5129 23.0248 28.9604 22.5741 29.5137 22.5741H35.4431C35.4806 21.9995 35.6036 21.4215 35.87 20.8263C36.0989 20.3102 35.5319 19.0578 35.2825 18.404L35.2791 18.4075Z" fill="url(#paint1_radial_77_259)"/>
<path d="M15.4656 35.3976C14.9771 33.0821 13.7441 30.505 12.6682 28.3993C12.05 27.1916 11.5274 26.0528 11.0971 24.9724H9.69329C9.13997 24.9724 8.69253 25.4231 8.69253 25.9805L8.72669 30.4259L8.73352 31.3617V35.8311H8.68912C8.46027 36.1408 8.1802 36.3232 7.87963 36.3232C7.49026 36.3232 7.13504 36.0169 6.87888 35.5215C6.31447 34.9664 5.56935 34.6363 4.78174 34.5925C2.96125 34.4927 1.35594 35.9963 1.32862 37.8336C1.3013 39.6778 2.77681 41.1814 4.60071 41.1814C5.50925 41.1814 6.32898 40.8098 6.91987 40.2077C7.17262 39.7569 7.50734 39.4783 7.87622 39.4783C8.19728 39.4783 8.49102 39.6881 8.73011 40.0356V43.2767C8.73011 45.8572 10.8068 47.9526 13.3718 47.9526H14.5707C14.5775 47.901 14.5809 47.8528 14.5878 47.8012C14.6868 46.8722 16.2101 40.9302 15.4656 35.4011V35.3976Z" fill="url(#paint2_linear_77_259)"/>
<path d="M36.2867 32.3629H36.2935C36.3038 32.3457 36.3106 32.3319 36.3174 32.3147C36.133 32.3422 36.1228 32.3113 36.2833 32.3594L36.2867 32.3629Z" fill="white"/>
<path d="M51.3049 27.2535C51.3049 24.673 49.2283 22.5776 46.6632 22.5776H44.9247H45.0066H38.3053C38.3122 23.2727 38.6127 23.4997 38.9611 24.2808C39.3812 25.2166 40.2078 26.1215 40.4503 26.6823C40.7543 27.3739 40.4366 27.5322 39.7877 27.9141C39.6442 28.0001 39.0397 28.124 38.9406 28.2306C38.4317 28.7674 38.3941 28.7846 38.5171 29.6929C38.5513 29.9544 38.7801 31.5062 38.7801 31.5062C38.2097 31.9603 37.0518 32.1358 36.5942 32.2597C36.4746 32.2906 36.3858 32.3078 36.3175 32.3182C36.3072 32.3354 36.3004 32.3491 36.2936 32.3663C36.4917 32.4283 38.2849 32.9581 38.1243 33.4845C38.0219 33.8252 38.0458 33.8768 37.9535 34.1933C37.4549 35.9481 37.9501 37.4 37.6086 38.0297C36.7205 39.6571 34.2648 38.6077 32.9259 38.7832C32.5502 38.8313 32.2496 39.1272 32.1949 39.5057C32.0617 40.4588 31.8329 43.2904 31.6655 45.5406H37.5847V45.5854C37.8921 45.8159 38.0731 46.098 38.0731 46.4008C38.0731 46.793 37.7691 47.1509 37.2773 47.4089C36.7262 47.9775 36.3985 48.7281 36.3551 49.5215C36.256 51.3554 37.7486 52.9725 39.5725 53C41.4032 53.0275 42.8958 51.5412 42.8958 49.7038C42.8958 48.7886 42.527 47.9629 41.9292 47.3676C41.4818 47.113 41.2051 46.7758 41.2051 46.4042C41.2051 46.0808 41.4135 45.7849 41.7585 45.5441H46.6632C49.2248 45.5441 51.3049 43.4521 51.3049 40.8682C49.5459 36.7532 49.5801 32.2046 51.3049 27.2535Z" fill="#3383F1"/>
</g>
<defs>
<linearGradient id="paint0_linear_77_259" x1="32.212" y1="13.8313" x2="42.8374" y2="4.90391" gradientUnits="userSpaceOnUse">
<stop offset="0.06" stop-color="#94A9C1" stop-opacity="0.3"/>
<stop offset="0.16" stop-color="#94A9C1" stop-opacity="0.38"/>
<stop offset="0.56" stop-color="#94A9C1" stop-opacity="0.71"/>
<stop offset="0.85" stop-color="#94A9C1" stop-opacity="0.92"/>
<stop offset="1" stop-color="#94A9C1"/>
</linearGradient>
<radialGradient id="paint1_radial_77_259" cx="0" cy="0" r="1" gradientUnits="userSpaceOnUse" gradientTransform="translate(24.9539 28.9393) scale(15.3392 15.452)">
<stop offset="0.72" stop-color="#94A9C1"/>
<stop offset="0.8" stop-color="#94A9C1" stop-opacity="0.83"/>
<stop offset="0.93" stop-color="#94A9C1" stop-opacity="0.59"/>
<stop offset="1" stop-color="#94A9C1" stop-opacity="0.5"/>
</radialGradient>
<linearGradient id="paint2_linear_77_259" x1="16.2955" y1="33.0924" x2="5.83156" y2="41.1072" gradientUnits="userSpaceOnUse">
<stop stop-color="#94A9C1" stop-opacity="0.3"/>
<stop offset="0.1" stop-color="#94A9C1" stop-opacity="0.38"/>
<stop offset="0.53" stop-color="#94A9C1" stop-opacity="0.71"/>
<stop offset="0.84" stop-color="#94A9C1" stop-opacity="0.92"/>
<stop offset="1" stop-color="#94A9C1"/>
</linearGradient>
<clipPath id="clip0_77_259">
<rect width="168" height="53" fill="white"/>
</clipPath>
</defs>
</svg>
