<svg width="52" height="53" viewBox="0 0 52 53" fill="none" xmlns="http://www.w3.org/2000/svg">
<path d="M23.656 7.47643C31.7543 6.89151 39.6135 9.84361 37.407 16.2949C37.4343 17.0484 38.8928 19.4465 38.4624 21.4077C38.3497 21.9272 38.3019 22.2919 38.3053 22.5775H43.6745V14.9633C43.9136 14.6124 44.2074 14.4059 44.5284 14.4059C44.8973 14.4059 45.232 14.6846 45.4848 15.1353C46.2123 15.8751 47.2848 16.2673 48.4392 16.0471C49.7235 15.8028 50.7618 14.7672 51.0111 13.4769C51.421 11.3644 49.8294 9.5133 47.8039 9.5133C46.9528 9.51245 46.1351 9.84712 45.5258 10.4457C45.2696 10.9412 44.9144 11.2474 44.525 11.2474C44.2244 11.2474 43.9444 11.065 43.7155 10.7554H43.6711V7.13924C43.6711 4.55874 41.5945 2.46338 39.0294 2.46338C34.7463 3.78803 30.3608 3.81212 25.8727 2.46338H25.5107C22.949 2.46338 20.869 4.5553 20.869 7.13924V7.45578H23.5228C23.5672 7.45578 23.6048 7.46955 23.6458 7.47643H23.656Z" fill="url(#paint0_linear_77_262)"/>
<path d="M9.69331 24.9691H11.0971C9.80944 21.7487 9.35176 19.0581 9.74113 16.6599C10.7316 10.5665 16.1897 8.37825 22.143 7.62474C22.6451 7.56281 23.1506 7.5112 23.6526 7.47679C23.6117 7.46991 23.5707 7.45615 23.5297 7.45615H13.2523C12.9039 7.2153 12.699 6.91941 12.699 6.59598C12.699 6.22439 12.9756 5.88721 13.4231 5.6326C14.1574 4.89974 14.5468 3.81937 14.3282 2.65642C14.0857 1.36273 13.0576 0.316769 11.7768 0.0656009C9.67965 -0.347279 7.8455 1.25951 7.8455 3.29639C7.84466 4.15378 8.17688 4.97747 8.77112 5.59131C9.26295 5.84936 9.56694 6.20719 9.56694 6.59942C9.56694 6.9022 9.38591 7.18434 9.07851 7.41486V7.45959H4.64173C2.08007 7.45959 0 9.55151 0 12.1355C1.57798 16.9283 1.60872 21.353 0 25.3889V25.7536C0 28.3341 2.07665 30.4295 4.64173 30.4295H8.7233L8.68914 25.9841C8.68914 25.4267 9.13658 24.976 9.6899 24.976L9.69331 24.9691Z" fill="#3383F1"/>
<path d="M35.2791 18.4075C35.0093 17.6952 34.777 17.0794 34.7497 16.3947L34.7326 15.8958L34.8932 15.4244C35.3577 14.0688 35.04 13.3669 34.7156 12.9024C33.5201 11.2165 29.8792 10.0811 25.6541 10.0811C25.1828 10.0811 24.7114 10.0983 24.2367 10.1258V14.6399H24.1923C23.9634 14.9496 23.6834 15.132 23.3828 15.132C22.9934 15.132 22.6382 14.8257 22.382 14.3303C21.7731 13.7311 20.9551 13.3963 20.1039 13.3979C18.297 13.3979 16.8318 14.8739 16.8318 16.694C16.8318 18.5141 18.297 19.9902 20.1039 19.9902C21.0124 19.9902 21.8321 19.6186 22.423 19.0165C22.6758 18.5657 23.0105 18.287 23.3794 18.287C23.7004 18.287 23.9942 18.4969 24.2333 18.8444V24.9791H20.8553L13.9866 24.9688C14.294 25.6673 14.6424 26.3967 15.0352 27.1674C16.2306 29.5036 17.5217 32.2424 18.0682 34.8366L18.0887 34.933L18.1024 35.0328C18.7786 40.0458 17.7847 45.2034 17.3612 47.4054C17.3339 47.5499 17.3065 47.6806 17.286 47.7873C19.5096 46.7001 22.7509 45.5509 27.2628 45.5509C27.8298 45.5509 28.4071 45.5681 28.9945 45.6059C28.9979 45.5371 29.0048 45.4683 29.0116 45.3995C28.7145 45.224 28.5095 44.904 28.5095 44.529V37.049C28.2704 36.698 27.9767 36.4916 27.6556 36.4916C27.2868 36.4916 26.952 36.7703 26.6993 37.221C26.3959 37.5298 26.0347 37.7749 25.6366 37.942C25.2385 38.1091 24.8114 38.195 24.3801 38.1947C24.3187 38.1947 24.2572 38.1878 24.1957 38.1844C22.4743 38.0881 21.108 36.6533 21.108 34.8986C21.108 33.0785 22.5733 31.6024 24.3801 31.6024C25.2313 31.6016 26.0489 31.9362 26.6583 32.5348C26.9145 33.0303 27.2697 33.3365 27.6591 33.3365C27.9596 33.3365 28.2397 33.1542 28.4685 32.8445H28.5129V23.5822C28.5129 23.0248 28.9604 22.5741 29.5137 22.5741H35.4431C35.4806 21.9995 35.6036 21.4215 35.87 20.8263C36.0989 20.3102 35.5319 19.0578 35.2825 18.404L35.2791 18.4075Z" fill="url(#paint1_radial_77_262)"/>
<path d="M15.4656 35.3976C14.9771 33.0821 13.7441 30.505 12.6682 28.3993C12.05 27.1916 11.5274 26.0528 11.0971 24.9724H9.69329C9.13997 24.9724 8.69253 25.4231 8.69253 25.9805L8.72669 30.4259L8.73352 31.3617V35.8311H8.68912C8.46027 36.1408 8.1802 36.3232 7.87963 36.3232C7.49026 36.3232 7.13504 36.0169 6.87888 35.5215C6.31447 34.9664 5.56935 34.6363 4.78174 34.5925C2.96125 34.4927 1.35594 35.9963 1.32862 37.8336C1.3013 39.6778 2.77681 41.1814 4.60071 41.1814C5.50925 41.1814 6.32898 40.8098 6.91987 40.2077C7.17262 39.7569 7.50734 39.4783 7.87622 39.4783C8.19728 39.4783 8.49102 39.6881 8.73011 40.0356V43.2767C8.73011 45.8572 10.8068 47.9526 13.3718 47.9526H14.5707C14.5775 47.901 14.5809 47.8528 14.5878 47.8012C14.6868 46.8722 16.2101 40.9302 15.4656 35.4011V35.3976Z" fill="url(#paint2_linear_77_262)"/>
<path d="M36.2867 32.3629H36.2935C36.3038 32.3457 36.3106 32.3319 36.3174 32.3147C36.133 32.3422 36.1228 32.3113 36.2833 32.3594L36.2867 32.3629Z" fill="white"/>
<path d="M51.3049 27.2535C51.3049 24.673 49.2283 22.5776 46.6632 22.5776H44.9247H45.0066H38.3053C38.3122 23.2727 38.6127 23.4997 38.9611 24.2808C39.3812 25.2166 40.2078 26.1215 40.4503 26.6823C40.7543 27.3739 40.4366 27.5322 39.7877 27.9141C39.6442 28.0001 39.0397 28.124 38.9406 28.2306C38.4317 28.7674 38.3941 28.7846 38.5171 29.6929C38.5513 29.9544 38.7801 31.5062 38.7801 31.5062C38.2097 31.9603 37.0518 32.1358 36.5942 32.2597C36.4746 32.2906 36.3858 32.3078 36.3175 32.3182C36.3072 32.3354 36.3004 32.3491 36.2936 32.3663C36.4917 32.4283 38.2849 32.9581 38.1243 33.4845C38.0219 33.8252 38.0458 33.8768 37.9535 34.1933C37.4549 35.9481 37.9501 37.4 37.6086 38.0297C36.7205 39.6571 34.2648 38.6077 32.9259 38.7832C32.5502 38.8313 32.2496 39.1272 32.1949 39.5057C32.0617 40.4588 31.8329 43.2904 31.6655 45.5406H37.5847V45.5854C37.8921 45.8159 38.0731 46.098 38.0731 46.4008C38.0731 46.793 37.7691 47.1509 37.2773 47.4089C36.7262 47.9775 36.3985 48.7281 36.3551 49.5215C36.256 51.3554 37.7486 52.9725 39.5725 53C41.4032 53.0275 42.8958 51.5412 42.8958 49.7038C42.8958 48.7886 42.527 47.9629 41.9292 47.3676C41.4818 47.113 41.2051 46.7758 41.2051 46.4042C41.2051 46.0808 41.4135 45.7849 41.7585 45.5441H46.6632C49.2248 45.5441 51.3049 43.4521 51.3049 40.8682C49.5459 36.7532 49.5801 32.2046 51.3049 27.2535Z" fill="#3383F1"/>
<defs>
<linearGradient id="paint0_linear_77_262" x1="32.212" y1="13.8313" x2="42.8374" y2="4.90391" gradientUnits="userSpaceOnUse">
<stop offset="0.06" stop-color="#94A9C1" stop-opacity="0.3"/>
<stop offset="0.16" stop-color="#94A9C1" stop-opacity="0.38"/>
<stop offset="0.56" stop-color="#94A9C1" stop-opacity="0.71"/>
<stop offset="0.85" stop-color="#94A9C1" stop-opacity="0.92"/>
<stop offset="1" stop-color="#94A9C1"/>
</linearGradient>
<radialGradient id="paint1_radial_77_262" cx="0" cy="0" r="1" gradientUnits="userSpaceOnUse" gradientTransform="translate(24.9539 28.9393) scale(15.3392 15.452)">
<stop offset="0.72" stop-color="#94A9C1"/>
<stop offset="0.8" stop-color="#94A9C1" stop-opacity="0.83"/>
<stop offset="0.93" stop-color="#94A9C1" stop-opacity="0.59"/>
<stop offset="1" stop-color="#94A9C1" stop-opacity="0.5"/>
</radialGradient>
<linearGradient id="paint2_linear_77_262" x1="16.2955" y1="33.0924" x2="5.83156" y2="41.1072" gradientUnits="userSpaceOnUse">
<stop stop-color="#94A9C1" stop-opacity="0.3"/>
<stop offset="0.1" stop-color="#94A9C1" stop-opacity="0.38"/>
<stop offset="0.53" stop-color="#94A9C1" stop-opacity="0.71"/>
<stop offset="0.84" stop-color="#94A9C1" stop-opacity="0.92"/>
<stop offset="1" stop-color="#94A9C1"/>
</linearGradient>
</defs>
</svg>
