<svg width="22" height="23" viewBox="0 0 22 23" fill="none" xmlns="http://www.w3.org/2000/svg">
<path d="M17.542 8.75325C18.1865 8.26985 18.7666 7.68977 19.2178 7.01302C18.6377 7.27083 17.9609 7.46419 17.2842 7.52864C17.9932 7.1097 18.5088 6.46516 18.7666 5.6595C18.1221 6.04622 17.3809 6.33626 16.6396 6.49739C15.9951 5.82063 15.125 5.43391 14.1582 5.43391C12.2891 5.43391 10.7744 6.94856 10.7744 8.8177C10.7744 9.07552 10.8066 9.33333 10.8711 9.59114C8.06738 9.43001 5.55371 8.07649 3.87793 6.04622C3.58789 6.52962 3.42676 7.1097 3.42676 7.75423C3.42676 8.91438 4.00684 9.94563 4.94141 10.5579C4.39355 10.5257 3.8457 10.3968 3.39453 10.139V10.1712C3.39453 11.8148 4.55469 13.1683 6.10156 13.4906C5.84375 13.555 5.52148 13.6195 5.23145 13.6195C5.00586 13.6195 4.8125 13.5872 4.58691 13.555C5.00586 14.9085 6.2627 15.8753 7.74512 15.9075C6.58496 16.8099 5.13477 17.3577 3.55566 17.3577C3.26562 17.3577 3.00781 17.3255 2.75 17.2933C4.23242 18.2601 6.00488 18.8079 7.93848 18.8079C14.1582 18.8079 17.542 13.6839 17.542 9.20442C17.542 9.04329 17.542 8.91438 17.542 8.75325Z" fill="#6B7280"/>
</svg>
